<svg width="548" height="201" viewBox="0 0 548 201" fill="none" xmlns="http://www.w3.org/2000/svg">
<rect x="172.666" y="9.80505" width="208.576" height="84.1416" rx="15.8012" fill="black"/>
<rect x="138.299" y="75.4209" width="277.32" height="113.899" rx="15.8012" fill="black"/>
<path d="M202.9 28.2171V22.1495H223.834V28.2171H217.463V78.7305H209.272V28.2171H202.9ZM229.067 22.0736H240.216C241.379 22.0736 242.365 22.4781 243.174 23.2872C243.983 24.0962 244.388 25.0569 244.388 26.1693V74.7107C244.388 75.8737 243.983 76.8344 243.174 77.5928C242.365 78.3513 241.379 78.7305 240.216 78.7305H229.067C227.904 78.7305 226.943 78.3513 226.185 77.5928C225.426 76.8344 225.047 75.8737 225.047 74.7107V26.1693C225.047 25.0569 225.426 24.0962 226.185 23.2872C226.943 22.4781 227.904 22.0736 229.067 22.0736ZM236.196 72.5112V28.2171H233.238V72.5112H236.196ZM245.638 78.7305V22.1495H260.883C262.046 22.1495 263.032 22.554 263.841 23.363C264.65 24.1215 265.054 25.0822 265.054 26.2451V61.5893C265.054 62.7018 264.726 63.6372 264.068 64.3956C263.411 65.1541 262.526 65.5333 261.414 65.5333H253.905V78.7305H245.638ZM256.863 59.5415V28.2171H253.905V59.5415H256.863ZM282.94 78.7305H274.673V22.1495H282.94V78.7305ZM299.474 22.1495C300.637 22.1495 301.598 22.554 302.356 23.363C303.165 24.1215 303.57 25.0822 303.57 26.2451V44.2206C303.57 45.333 303.216 46.2685 302.508 47.0269C301.8 47.7854 300.941 48.2152 299.929 48.3163C300.941 48.4174 301.8 48.8725 302.508 49.6815C303.216 50.4906 303.57 51.4007 303.57 52.412V78.7305H295.379V51.3501H292.421V78.7305H284.153V22.1495H299.474ZM292.421 45.2825H295.379V28.2171H292.421V45.2825ZM312.648 22.1495L316.516 48.7714L320.46 22.1495H329.259L320.612 61.9686V78.7305H312.421V61.9686L303.85 22.1495H312.648ZM329.483 26.2451C329.483 25.1327 329.888 24.172 330.697 23.363C331.506 22.554 332.492 22.1495 333.655 22.1495H344.728C345.891 22.1495 346.852 22.554 347.61 23.363C348.419 24.172 348.824 25.1327 348.824 26.2451V35.65H340.633V28.2171H337.675V30.265C337.675 32.7426 338.256 35.3972 339.419 38.2288C340.582 41.0098 341.846 43.9678 343.211 47.1028C344.627 50.1872 345.916 53.4233 347.079 56.8111C348.242 60.1988 348.824 63.6878 348.824 67.2778V74.7107C348.824 75.8737 348.419 76.8344 347.61 77.5928C346.852 78.3513 345.891 78.7305 344.728 78.7305H333.655C332.492 78.7305 331.506 78.3513 330.697 77.5928C329.938 76.8344 329.559 75.8737 329.559 74.7107V59.5415H337.675V72.5112H340.633V67.2778C340.633 63.7383 340.051 60.4264 338.888 57.342C337.725 54.207 336.436 51.1479 335.02 48.1646C333.655 45.1813 332.391 42.1981 331.228 39.2148C330.065 36.181 329.483 32.9954 329.483 29.6582V26.2451Z" fill="white"/>
<path d="M185.865 91.7224L191.428 130.009L197.1 91.7224H209.753L197.318 148.989V173.096H185.538V148.989L173.212 91.7224H185.865ZM211.229 91.7224H226.064L234.791 173.096H223.228L221.919 154.225H215.374L214.175 173.096H202.612L211.229 91.7224ZM221.374 145.499L218.647 104.157L215.92 145.499H221.374ZM236.174 173.096V91.7224H258.099C259.772 91.7224 261.19 92.3042 262.354 93.4677C263.517 94.5585 264.099 95.9402 264.099 97.6127V148.444C264.099 150.044 263.626 151.389 262.681 152.48C261.735 153.57 260.463 154.116 258.863 154.116H248.064V173.096H236.174ZM252.318 145.499V100.449H248.064V145.499H252.318ZM265.894 173.096V91.7224H287.819C289.492 91.7224 290.91 92.3042 292.073 93.4677C293.237 94.5585 293.819 95.9402 293.819 97.6127V148.444C293.819 150.044 293.346 151.389 292.401 152.48C291.455 153.57 290.183 154.116 288.583 154.116H277.784V173.096H265.894ZM282.038 145.499V100.449H277.784V145.499H282.038ZM295.614 91.7224H323.539V100.449H307.504V117.683H319.721V126.41H307.504V164.151H323.539V173.096H295.614V91.7224ZM347.368 91.7224C349.041 91.7224 350.422 92.3042 351.513 93.4677C352.677 94.5585 353.259 95.9402 353.259 97.6127V123.465C353.259 125.064 352.749 126.41 351.731 127.5C350.713 128.591 349.477 129.209 348.023 129.355C349.477 129.5 350.713 130.155 351.731 131.318C352.749 132.482 353.259 133.791 353.259 135.245V173.096H341.478V133.718H337.224V173.096H325.334V91.7224H347.368ZM337.224 124.992H341.478V100.449H337.224V124.992ZM355.054 97.6127C355.054 96.0129 355.636 94.6312 356.799 93.4677C357.963 92.3042 359.381 91.7224 361.053 91.7224H376.979C378.652 91.7224 380.033 92.3042 381.124 93.4677C382.288 94.6312 382.869 96.0129 382.869 97.6127V111.139H371.089V100.449H366.835V103.394C366.835 106.957 367.671 110.775 369.343 114.847C371.016 118.847 372.834 123.101 374.797 127.61C376.834 132.045 378.688 136.7 380.361 141.572C382.033 146.444 382.869 151.462 382.869 156.625V167.314C382.869 168.987 382.288 170.369 381.124 171.46C380.033 172.55 378.652 173.096 376.979 173.096H361.053C359.381 173.096 357.963 172.55 356.799 171.46C355.709 170.369 355.163 168.987 355.163 167.314V145.499H366.835V164.151H371.089V156.625C371.089 151.534 370.252 146.771 368.58 142.335C366.907 137.827 365.053 133.427 363.017 129.137C361.053 124.846 359.235 120.556 357.563 116.265C355.89 111.902 355.054 107.321 355.054 102.521V97.6127Z" fill="#51FFD3"/>
<g clip-path="url(#clip0_14_720)">
<path d="M390.017 37.0991C390.236 34.4232 390.579 31.6827 391.844 29.3143C394.023 25.23 398.67 22.9159 403.274 22.443C407.879 21.9701 412.492 23.0735 416.938 24.363C428.308 27.6617 439.307 32.2409 449.658 37.9894C454.095 31.9773 458.53 25.9665 462.967 19.9544C466.424 15.2706 470.305 10.287 475.926 8.7714C483.59 6.70535 491.201 11.8246 497.289 16.918C507.225 25.23 516.612 34.3134 524.216 44.8026C532.694 56.496 538.856 69.86 542.245 83.8999C544.64 93.827 545.657 104.072 545.465 114.281C545.377 118.932 545.032 123.623 543.722 128.087C542.596 131.923 540.782 135.514 538.978 139.081C535.479 146 531.869 153.071 526.214 158.373C523.587 160.836 520.43 163.053 519.207 166.44C517.499 171.165 520.142 176.205 521.361 181.079C522.046 183.816 522.257 186.798 521.137 189.386C520.017 191.975 518.402 193.712 515.611 193.307C513.268 192.969 511.391 190.962 509.791 189.218C508.211 187.494 505.496 185.963 505.578 183.627C502.138 184.165 500.983 178.87 497.921 177.216C496.389 176.388 494.528 176.583 492.802 176.815C475.072 179.202 457.666 183.734 440.021 180.783C437.172 186.207 432.999 190.661 428.737 195.062C426.316 197.564 422.455 199.976 419.644 197.923C418.102 196.797 417.613 194.733 417.437 192.832C416.767 185.592 421.052 177.536 417.558 171.16C416 168.317 411.372 166.344 408.904 164.242C403.679 159.792 399.726 154.133 394.501 149.683C393.055 148.451 392.921 146.496 392.217 144.734C391.45 142.817 389.106 142.531 389.068 140.468C388.901 131.801 382.778 124.159 382.288 115.504C382.164 113.305 382.41 111.105 382.656 108.916C383.181 104.254 383.706 99.5845 384.671 94.9937C386.592 85.8587 392.237 76.1771 391.366 66.8443C390.427 56.7699 389.17 47.4914 390.019 37.0966L390.017 37.0991Z" fill="#E4E4E4"/>
<path d="M420.883 82.374C421.6 82.3494 422.292 82.7306 422.756 83.2771C423.22 83.8237 423.479 84.5201 423.618 85.2243C423.684 85.559 423.725 85.9065 423.645 86.2373C423.51 86.8007 423.055 87.2219 422.621 87.6056C422.185 87.992 421.732 88.3899 421.175 88.5566C420.104 88.8796 418.994 88.2814 418.035 87.7051C417.886 87.616 417.733 87.5216 417.645 87.3731C417.556 87.2232 417.548 87.041 417.545 86.8666C417.526 84.4568 418.167 82.467 420.882 82.3727L420.883 82.374Z" fill="white"/>
<path d="M426.06 99.759C426.989 98.9088 427.36 97.6219 428.054 96.5714C428.151 96.4254 428.272 96.2717 428.447 96.2445C428.635 96.2161 428.806 96.3479 428.98 96.4254C429.192 96.5197 429.43 96.5378 429.661 96.552C433.977 96.8118 438.434 96.0998 442.176 93.9317C442.326 93.8451 442.479 93.7534 442.647 93.7094C443.397 93.5131 444.021 94.2612 444.71 94.6178C445.159 94.8491 445.671 94.9175 446.148 95.0804C446.626 95.2432 447.107 95.5455 447.254 96.0287C447.332 96.2833 447.306 96.5598 447.239 96.8169C447.169 97.087 447.054 97.3467 446.902 97.5805C446.706 97.879 446.451 98.1349 446.197 98.3868C445.182 99.3998 444.156 100.421 442.952 101.201C441.747 101.981 440.395 102.501 439.033 102.956C436.896 103.67 434.665 104.243 432.415 104.12C430.545 104.018 428.737 103.435 427.049 102.651C426.634 102.458 424.696 101.762 424.591 101.311C424.471 100.797 425.732 100.059 426.058 99.7603L426.06 99.759Z" fill="#6BF2C4"/>
<path d="M442.925 93.5053C444.041 94.1268 445.156 94.747 446.272 95.3685C446.568 95.5326 446.882 95.7019 447.221 95.6889C447.846 95.6631 448.271 95.0313 448.447 94.4304C448.767 93.3335 448.619 92.1615 448.457 91.0297C448.079 88.3848 447.614 85.6727 446.217 83.3947C445.948 82.9567 445.648 82.5394 445.347 82.1246C444.399 80.8183 443.425 79.5159 442.224 78.437C441.542 77.8245 440.793 77.2896 440.046 76.7573C438.84 75.898 437.624 75.0336 436.268 74.4444C433.151 73.0916 429.58 73.31 426.244 73.947C425.096 74.1653 423.937 74.4393 422.936 75.0414C421.542 75.8812 420.588 77.2741 419.68 78.6243C418.735 80.0275 417.747 81.6233 418.048 83.2875C418.947 82.1582 420.686 82.3611 422.096 82.6712C422.343 82.7254 422.599 82.7836 422.798 82.9399C423.028 83.1208 423.147 83.4051 423.256 83.6764C423.694 84.7605 424.113 86.0693 423.442 87.0281C423.108 87.5061 422.564 87.7865 422.033 88.0281C421.433 88.3008 420.776 88.5514 420.132 88.4158C419.137 88.2052 418.476 87.1353 417.469 86.9932C417.35 89.9482 417.746 92.9226 418.631 95.7432C418.825 96.3608 419.048 96.9836 419.443 97.4966C419.717 97.8519 420.065 98.1413 420.41 98.4282C421.369 99.2254 422.326 100.023 423.285 100.821C423.41 100.926 423.546 101.034 423.709 101.049C423.851 101.061 423.989 100.998 424.116 100.932C425.728 100.105 427.014 98.662 427.652 96.9655C427.74 96.7304 427.834 96.4694 428.055 96.3492C428.241 96.2484 428.469 96.2768 428.678 96.3053C431.214 96.6515 433.806 96.5689 436.317 96.0792C437.601 95.8285 438.864 95.4719 440.087 95.0119C440.603 94.8181 441.318 94.6385 441.76 94.3051C442.178 93.9924 442.249 93.4433 442.926 93.5079L442.925 93.5053Z" fill="#231F20"/>
<path d="M430.427 83.8998C432.57 84.7177 434.343 86.2592 436.067 87.7696C436.334 86.1532 436.854 84.5782 437.605 83.1207C437.909 82.5302 438.238 81.7653 437.805 81.2614C437.686 81.1231 437.526 81.0301 437.369 80.9397C436.463 80.4215 433.215 77.8929 432.298 78.5028C431.951 78.7328 430.815 84.051 430.429 83.8998H430.427Z" fill="white"/>
<path d="M411.29 85.7631C410.335 88.4532 410.286 91.3682 410.297 94.2224C410.302 95.6889 410.324 97.1839 410.792 98.5729C411.513 100.715 413.199 102.366 414.427 104.265C414.813 104.859 415.161 105.491 415.682 105.971C416.593 106.814 417.889 107.077 418.952 107.717C420.095 108.403 420.949 109.513 422.13 110.132C422.813 110.49 423.574 110.667 424.326 110.84C426.019 111.23 427.721 111.622 429.453 111.737C436.455 112.198 443.315 107.775 446.526 101.534C447.037 100.538 447.471 99.3546 447.026 98.3274C446.391 98.7731 445.758 99.2202 445.124 99.666C443.979 100.472 442.831 101.28 441.599 101.947C436.958 104.457 431.182 104.761 426.303 102.749C425.498 102.417 424.714 102.024 424.021 101.496C423.569 101.151 423.161 100.751 422.764 100.344C420.261 97.7743 418.11 94.7031 417.401 91.1873C416.827 88.346 417.23 85.3923 417.948 82.5846C418.133 81.8623 418.341 81.1387 418.689 80.4785C419.44 79.0494 421.312 77.6669 421.403 75.9536C421.526 73.6653 418.967 76.314 418.349 76.827C415.42 79.2639 412.59 82.0961 411.288 85.7618L411.29 85.7631Z" fill="white"/>
<path d="M505.389 62.2845C509.179 63.1102 513.1 64.3842 515.673 67.2862C516.628 68.3638 517.354 69.6223 518.013 70.9015C520.517 75.7597 522.159 81.463 520.531 86.6805C519.616 89.6122 517.726 92.1654 515.499 94.2792C511.355 98.2098 505.67 100.808 499.99 100.211C495.978 99.7887 492.3 97.8531 488.777 95.8866C488.314 95.6282 487.832 95.3491 487.565 94.8917C487.299 94.4343 487.35 93.7469 487.812 93.4885C488.139 93.3063 488.544 93.3903 488.909 93.4755C492.848 94.4007 497.007 94.88 500.92 93.8451C506.555 92.3553 511.183 87.5591 512.471 81.8752C513.425 77.6643 512.516 73.1032 510.178 69.4931C509.251 68.064 508.135 66.7603 506.879 65.6155C506.267 65.0586 502.056 61.5571 505.389 62.2832V62.2845Z" fill="white"/>
<path d="M488.856 86.8885C492.595 87.2102 496.528 87.5022 499.944 85.9478C501.107 85.4181 502.251 84.6687 503.529 84.7036C504.549 84.732 505.48 85.263 506.36 85.7799C507.025 86.1701 507.692 86.5616 508.357 86.9518C508.59 87.0888 508.834 87.2361 508.959 87.4751C509.278 88.0824 508.661 88.7452 508.109 89.1548C506.922 90.036 505.736 90.9172 504.548 91.7984C503.326 92.7055 502.078 93.628 500.636 94.1203C499.366 94.5544 498 94.6358 496.66 94.5764C493.887 94.4524 491.147 93.7275 488.667 92.4832C487.468 91.8811 486.062 91.4625 486.527 90.1278C486.901 89.0592 488.402 88.1509 488.853 86.8911L488.856 86.8885Z" fill="#6BF2C4"/>
<path d="M505.907 68.5693C505.008 68.962 504.349 69.8575 504.238 70.833C504.128 71.8085 504.571 72.828 505.361 73.412C505.654 73.6291 505.987 73.788 506.325 73.9288C507.216 74.301 508.29 74.5477 509.108 74.0335C510.182 73.3577 511.338 70.5138 510.722 69.2786C510.008 67.8508 507.14 68.0317 505.909 68.5705L505.907 68.5693Z" fill="white"/>
<path d="M503.721 84.4309C504.858 85.599 506.325 86.4427 507.906 86.8381C508.333 86.9453 508.778 87.0203 509.211 86.9414C509.742 86.8445 510.21 86.5241 510.593 86.1442C511.784 84.9633 512.255 83.2499 512.568 81.6012C513.254 77.986 513.301 73.9211 511.064 70.9997C510.602 71.0655 510.406 71.6315 510.405 72.0992C510.405 72.5657 510.487 73.0799 510.219 73.4624C510.098 73.6368 509.915 73.7596 509.731 73.8655C508.705 74.4495 507.414 74.5942 506.321 74.1498C505.228 73.7053 504.383 72.6432 504.296 71.4661C504.21 70.289 504.949 69.0706 506.068 68.6933C506.867 68.4232 507.745 68.5744 508.581 68.4517C508.914 68.4026 509.324 68.1881 509.254 67.8586C509.229 67.7423 509.145 67.648 509.065 67.5614C507.795 66.1892 506.4 64.9346 504.901 63.8182C503.932 63.0959 502.883 62.4163 501.695 62.1889C500.609 61.9822 499.488 62.1695 498.408 62.4034C496.399 62.8401 494.426 63.4409 492.515 64.1994C491.578 64.5715 490.645 64.9863 489.843 65.5948C489.087 66.1685 488.466 66.8986 487.871 67.6389C485.818 70.196 483.985 73.005 483.075 76.1564C482.207 79.1682 482.226 82.4308 483.13 85.4323C483.611 87.028 484.332 88.5385 485.053 90.0399C485.292 90.5373 485.658 91.1136 486.208 91.0787C486.009 90.4624 486.396 89.8034 486.879 89.3719C487.362 88.9403 487.954 88.6328 488.376 88.1431C488.661 87.8123 488.87 87.3988 489.245 87.1753C489.786 86.8523 490.47 87.0293 491.087 87.1585C493.431 87.6495 495.838 87.28 498.138 86.736C498.772 86.5861 503.716 84.4257 503.722 84.4309H503.721Z" fill="#231F20"/>
<path d="M489.339 74.0258C491.563 75.2313 492.7 77.747 493.521 80.1386C493.847 78.9757 494.471 77.8969 495.315 77.0337C496.242 76.0841 497.519 75.2274 497.613 73.903C497.626 73.7144 497.613 73.5218 497.545 73.3461C497.439 73.0761 497.214 72.8719 497.006 72.6704C496.162 71.855 495.463 70.9015 494.842 69.9079C493.649 68.0046 493.132 70.0578 492.401 71.1031C492.121 71.5036 489.883 74.3204 489.34 74.0258H489.339Z" fill="white"/>
<path d="M465.187 117.574C467.363 118.071 469.624 118.191 471.84 117.931C474.725 117.592 477.506 116.616 480.121 115.352C480.549 115.145 481.126 114.955 481.444 115.309C481.606 115.489 481.629 115.75 481.642 115.992C481.961 122.265 479.608 128.629 475.288 133.188C474.418 130.127 473.088 127.039 470.608 125.045C468.782 123.577 466.527 123.982 464.832 122.948C463.177 121.939 464.641 119.793 465.189 117.574H465.187Z" fill="#231F20"/>
<path d="M465.97 123.133C467.544 123.475 469.151 123.831 470.527 124.669C473.123 126.252 474.475 129.321 474.909 132.329C474.968 132.743 475.001 133.211 474.736 133.537C474.569 133.74 474.316 133.847 474.072 133.944C472.26 134.658 470.146 135.183 468.425 134.271C467.412 133.733 466.702 132.777 466.026 131.852C465.377 130.963 464.718 130.056 464.373 129.011C463.986 127.837 464.02 126.574 464.058 125.34C464.114 123.553 463.921 122.678 465.97 123.133Z" fill="#FF8CA8"/>
<g opacity="0.28">
<path d="M422.588 115.533C420.255 115.433 418.057 116.537 416 117.641C415.296 118.02 414.579 118.412 414.039 119.001C413.499 119.59 413.156 120.422 413.351 121.197C413.504 121.803 413.951 122.287 414.384 122.737C415.159 123.545 415.959 124.359 416.952 124.873C417.806 125.317 418.764 125.515 419.711 125.683C422.76 126.224 425.859 126.487 428.956 126.468C430.667 126.457 432.568 126.274 433.712 125.001C434.709 123.891 434.821 122.139 434.129 120.817C433.438 119.496 432.049 118.614 430.579 118.355C427.737 117.852 425.608 115.662 422.588 115.533Z" fill="#FBA6B9"/>
</g>
<g opacity="0.28">
<path d="M519.57 103.015C520.916 102.643 522.326 102.374 523.709 102.578C525.091 102.781 526.454 103.524 527.109 104.758C527.531 105.551 527.633 106.486 527.529 107.377C527.204 110.199 524.919 112.491 522.31 113.614C519.702 114.737 516.792 114.893 513.953 114.973C513.141 114.997 512.29 115.007 511.56 114.648C510.545 114.149 509.987 113.058 509.497 112.039C509.228 111.478 508.952 110.857 509.107 110.255C510.18 106.106 515.912 104.023 519.569 103.014L519.57 103.015Z" fill="#FBA6B9"/>
</g>
<g opacity="0.17">
<path d="M450.402 35.7631C449.885 36.5306 449.36 37.4868 449.74 38.3305C450.156 39.2556 451.375 39.4352 452.389 39.4314C454.738 39.4223 455.889 39.3939 458.163 38.8034C460.111 31.8455 463.262 20.718 467.195 14.6569C465.231 17.6829 459.769 23.4573 457.554 26.3671C455.162 29.5055 452.614 32.4812 450.403 35.7631H450.402Z" fill="black"/>
</g>
<g opacity="0.15">
<path d="M410.554 165.888C413.943 168.607 417.747 170.77 421.661 172.657C452.168 187.382 490.406 184.634 518.494 165.695C521.569 163.622 524.53 161.368 527.231 158.827C537.872 148.81 544.077 134.241 543.923 119.629C541.197 127.111 538.406 134.714 533.633 141.089C531.638 143.755 529.325 146.163 527.019 148.564C522.289 153.489 517.457 158.492 511.466 161.769C506.826 164.306 501.66 165.711 496.51 166.917C474.057 172.168 450.197 173.956 428.138 167.24C419.294 164.547 410.735 160.432 403.963 154.136C400.62 151.028 397.623 147.283 393.367 145.376C396.464 147.892 398.402 152.309 400.801 155.483C403.675 159.282 406.825 162.897 410.553 165.887L410.554 165.888Z" fill="#231F20"/>
</g>
<g opacity="0.15">
<path d="M418.841 171.651C417.886 172.324 417.875 173.709 417.961 174.875C418.039 175.921 418.116 176.969 418.194 178.016C418.314 179.646 418.436 181.277 418.556 182.909C422.579 185.528 426.744 188.204 431.468 189.059C432.036 189.162 432.638 189.235 433.177 189.027C433.654 188.842 434.022 188.461 434.373 188.09C435.253 187.162 436.133 186.235 437.013 185.307C437.748 184.53 438.497 183.738 438.964 182.777C439.433 181.816 439.587 180.641 439.11 179.684C438.07 177.597 432.127 177.04 430.099 176.353C426.245 175.046 422.481 173.475 418.843 171.652L418.841 171.651Z" fill="#231F20"/>
</g>
<g opacity="0.15">
<path d="M518.541 164.288C519.031 167.137 519.521 169.985 520.009 172.834C520.105 173.394 520.202 173.969 520.083 174.523C519.932 175.236 519.448 175.827 518.963 176.369C515.836 179.867 511.952 182.684 507.656 184.569C507.074 184.824 506.415 185.065 505.821 184.84C505.278 184.636 504.946 184.101 504.636 183.61C503.274 181.456 500.575 179.756 499.43 177.636C497.837 174.685 500.185 174.385 502.668 173.307C508.262 170.882 513.594 167.852 518.541 164.287V164.288Z" fill="#231F20"/>
</g>
<g opacity="0.15">
<path d="M440.148 159.863C442.291 160.057 444.448 159.842 446.589 159.628C448.139 159.473 449.702 159.315 451.195 158.868C453.434 158.198 455.471 156.867 456.985 155.086C457.205 154.828 457.437 154.545 457.767 154.465C458.512 154.282 459.043 155.261 458.948 156.022C458.759 157.522 457.401 158.571 456.1 159.341C451.587 162.009 446.346 163.436 441.103 163.423C440.101 163.42 439.048 163.352 438.199 162.819C435.104 160.881 438.221 159.687 440.147 159.862L440.148 159.863Z" fill="#231F20"/>
</g>
<g opacity="0.15">
<path d="M497.581 153.29C497.108 153.145 496.54 153.002 496.166 153.326C495.536 153.873 496.237 154.876 496.94 155.325C501.092 157.982 506.402 158.197 511.236 157.236C512.935 156.898 515.146 156.333 515.981 154.723C514.093 153.887 511.037 154.567 508.945 154.564C505.126 154.559 501.26 154.421 497.581 153.291V153.29Z" fill="#231F20"/>
</g>
<g opacity="0.17">
<path d="M395.793 65.3481C395.673 63.9449 398.929 63.4927 399.075 62.7691C399.251 63.2007 399.167 62.3117 399.075 62.7691C394.953 52.5965 390.873 41.8192 392.264 30.9178C390.772 42.6074 387.07 60.3477 393.969 70.9881C394.847 68.8872 395.995 67.701 395.793 65.3481Z" fill="black"/>
</g>
<path d="M451.095 37.497C455.054 31.127 459.799 25.4083 464.411 19.515C469.811 12.6153 474.452 7.02573 483.813 10.9692C495.885 16.0548 506.333 25.3333 514.848 35.0821C533.64 56.5993 544.84 85.4555 544.162 114.144C543.78 130.353 537.519 145.689 525.97 157.141C514.485 168.529 500.043 174.184 484.513 177.758C454.386 184.692 423.093 179.454 402.015 155.422C379.283 129.508 378.761 90.6716 399.194 63.2587C400.369 61.6823 397.817 60.0155 396.649 61.5816C377.796 86.8755 375.785 122.528 393.345 149.055C411.548 176.552 443.129 187.311 474.992 182.372C491.376 179.833 508.441 175.01 521.63 164.589C534.283 154.591 543.037 140.656 545.8 124.707C551.107 94.0543 538.424 60.0401 519.09 36.5331C509.63 25.0323 496.369 12.2303 481.656 7.8798C475.761 6.13677 471.107 8.10979 467.166 12.645C460.771 20.0035 454.559 28.1204 449.446 36.413C448.781 37.4932 450.422 38.5772 451.092 37.4983L451.095 37.497Z" fill="#231F20"/>
<path d="M452.565 39.2052C443.165 33.8715 433.359 29.3531 423.121 25.8722C415.735 23.3617 406.662 19.9286 398.81 22.3655C391.967 24.4896 390.114 30.5547 389.426 37.0294C388.205 48.5005 388.82 60.1771 390.422 71.572C390.614 72.9429 392.708 72.4765 392.524 71.1121C391.333 62.2806 390.833 53.3975 391.241 44.4912C391.43 40.3759 391.425 35.7941 392.671 31.8261C394.592 25.7184 400.022 23.7971 405.877 24.1434C421.376 25.0608 438.219 33.4038 451.578 40.7015C452.582 41.2493 453.573 39.7763 452.564 39.2039L452.565 39.2052Z" fill="#231F20"/>
<path d="M432.977 49.5924C439.311 45.6709 446.076 42.7133 453.356 41.0336C460.793 39.3177 467.943 39.8707 475.435 39.4314C476.082 39.3939 476.41 38.4081 475.667 38.2104C461.456 34.4194 444.094 40.3979 432.074 47.8403C431.003 48.5031 431.894 50.2643 432.976 49.5937L432.977 49.5924Z" fill="#231F20"/>
<path d="M428.311 112.675C417.229 112.08 408.696 102.58 409.29 91.4974C409.885 80.4151 419.384 71.8822 430.466 72.4765C441.549 73.0709 450.081 82.5703 449.487 93.6526C448.893 104.735 439.393 113.269 428.311 112.675ZM430.364 74.3849C420.334 73.8474 411.737 81.569 411.2 91.5994C410.662 101.63 418.384 110.227 428.414 110.765C438.445 111.302 447.041 103.58 447.579 93.5492C448.116 83.5187 440.395 74.9225 430.364 74.3849Z" fill="#231F20"/>
<path d="M422.291 74.4663C414.369 81.9165 413.997 94.3761 422.689 101.452C431.002 108.219 442.585 105.591 448.647 97.2871C449.464 96.1682 447.646 94.9691 446.851 96.1036C441.532 103.696 431.371 105.942 423.795 100.167C415.58 93.9044 416.15 82.2537 423.19 75.4663C423.812 74.8668 422.924 73.8719 422.292 74.4663H422.291Z" fill="#231F20"/>
<path d="M420.58 88.74C420.521 88.74 420.463 88.7388 420.402 88.7349C419.526 88.6884 418.721 88.3033 418.134 87.6508C417.548 86.9983 417.252 86.1572 417.298 85.2811C417.345 84.4051 417.73 83.6001 418.384 83.0135C419.036 82.4269 419.877 82.1297 420.753 82.1775C421.63 82.224 422.435 82.6091 423.021 83.2616C423.608 83.9141 423.904 84.7565 423.857 85.6313C423.763 87.3795 422.31 88.7388 420.58 88.7388V88.74ZM420.574 82.4618C419.835 82.4618 419.131 82.7305 418.576 83.228C417.982 83.7629 417.631 84.4968 417.587 85.2953C417.544 86.0939 417.814 86.8614 418.349 87.457C418.884 88.0527 419.618 88.4028 420.416 88.4467C422.069 88.5436 423.479 87.2658 423.566 85.6171C423.654 83.9684 422.385 82.5548 420.737 82.467C420.682 82.4644 420.627 82.4631 420.573 82.4631L420.574 82.4618Z" fill="#231F20"/>
<path d="M424.55 101.99C425.618 101.231 426.56 100.343 427.385 99.3236C428.078 98.4643 429.053 97.3376 428.941 96.1838C428.904 95.7949 428.359 95.5636 428.041 95.76C427.17 96.2988 426.775 97.5017 426.142 98.3041C425.382 99.2667 424.47 100.082 423.472 100.791C422.626 101.392 423.712 102.587 424.55 101.992V101.99Z" fill="#231F20"/>
<path d="M428.137 96.5779C433.354 98.2963 438.984 97.0133 443.454 93.9588C444.112 93.5092 443.547 92.3876 442.881 92.8437C438.42 95.8918 433.556 96.5326 428.287 95.7936C427.829 95.729 427.714 96.4396 428.137 96.5791V96.5779Z" fill="#231F20"/>
<path d="M442.8 93.7301C444.276 95.0712 445.894 96.0778 447.791 96.7019C448.614 96.9719 449.039 95.6966 448.217 95.4266C446.502 94.8632 444.886 94.0686 443.437 92.9897C442.996 92.6602 442.382 93.3515 442.799 93.7314L442.8 93.7301Z" fill="#231F20"/>
<path d="M431.531 75.7716C432.176 78.4979 431.558 81.7682 429.606 83.8343C428.838 84.647 430 85.9533 430.774 85.1341C433.327 82.4298 434.078 78.821 432.221 75.5236C432.021 75.1682 431.431 75.3504 431.531 75.7716Z" fill="#231F20"/>
<path d="M431.528 75.7714C432.055 79.4836 434.911 81.9023 438.562 82.3908C439.677 82.5393 439.765 80.7937 438.655 80.6451C435.864 80.2717 433.353 78.0468 432.217 75.522C432.036 75.1202 431.471 75.3747 431.527 75.7701L431.528 75.7714Z" fill="#231F20"/>
<path d="M437.437 90.3926C436.792 87.6663 437.41 84.396 439.362 82.33C440.13 81.5172 438.968 80.2109 438.194 81.0301C435.641 83.7345 434.89 87.3433 436.747 90.6407C436.947 90.996 437.536 90.8138 437.437 90.3926Z" fill="#231F20"/>
<path d="M437.44 90.3926C436.912 86.6804 434.057 84.2617 430.405 83.7732C429.29 83.6247 429.203 85.3703 430.312 85.5189C433.103 85.8923 435.615 88.1173 436.751 90.642C436.932 91.0438 437.496 90.7893 437.441 90.3939L437.44 90.3926Z" fill="#231F20"/>
<path d="M500.724 101.214C493.383 100.82 486.514 96.4099 483.351 89.2362C478.874 79.0817 483.492 67.1764 493.647 62.698C503.8 58.2222 515.705 62.8376 520.185 72.9934C524.662 83.1479 520.044 95.0532 509.89 99.5316C506.909 100.847 503.775 101.378 500.724 101.214ZM485.1 88.4648C489.153 97.6542 499.925 101.839 509.118 97.7821C518.308 93.7275 522.488 82.9541 518.436 73.7635C514.382 64.5728 503.606 60.3929 494.417 64.4462C485.228 68.4995 481.048 79.2742 485.1 88.4648Z" fill="#231F20"/>
<path d="M501.54 62.9293C510.531 66.7862 515.13 77.5415 509.665 86.2657C504.562 94.4123 494.32 95.7949 486.645 90.5671C485.499 89.7867 484.301 91.6059 485.461 92.3631C494.621 98.3441 507.006 95.8556 511.909 85.661C516.506 76.1047 511.382 65.5574 501.965 61.6527C501.162 61.3194 500.752 62.5895 501.539 62.928L501.54 62.9293Z" fill="#231F20"/>
<path d="M507.489 74.6227C507.087 74.6227 506.685 74.5477 506.3 74.3979C505.482 74.08 504.838 73.4637 504.484 72.6613C504.13 71.8589 504.109 70.9661 504.427 70.1482C504.745 69.3303 505.361 68.6855 506.163 68.3315C506.966 67.9775 507.859 67.9568 508.676 68.2747C509.494 68.5925 510.139 69.2088 510.493 70.0112C510.847 70.8136 510.868 71.7064 510.55 72.5243C510.232 73.3422 509.616 73.987 508.813 74.341C508.39 74.5284 507.94 74.6214 507.489 74.6214V74.6227ZM507.488 68.3406C507.077 68.3406 506.667 68.4258 506.281 68.5964C505.55 68.9194 504.986 69.5073 504.697 70.2528C504.407 70.9984 504.427 71.8124 504.748 72.5437C505.072 73.275 505.659 73.8384 506.405 74.1278C507.152 74.4173 507.965 74.3992 508.696 74.0761C509.427 73.7531 509.991 73.1652 510.28 72.4197C510.569 71.6741 510.55 70.8601 510.228 70.1288C509.905 69.3975 509.317 68.8341 508.572 68.5447C508.22 68.4077 507.853 68.3406 507.488 68.3406Z" fill="#231F20"/>
<path d="M510.174 86.6895C509.023 86.3846 507.924 85.9646 506.897 85.3574C506.021 84.8392 505.255 83.9231 504.283 83.6441C503.719 83.4813 503.338 84.0226 503.526 84.5266C503.914 85.5589 505.261 86.2812 506.18 86.8058C507.276 87.4325 508.443 87.8976 509.662 88.2206C510.662 88.4855 511.178 86.9557 510.174 86.6908V86.6895Z" fill="#231F20"/>
<path d="M503.916 83.7435C499.333 86.2527 494.538 87.4182 489.373 86.1675C488.592 85.9788 488.19 87.1675 488.975 87.3575C494.302 88.6483 500.037 87.904 504.37 84.4012C504.726 84.113 504.317 83.5238 503.916 83.7422V83.7435Z" fill="#231F20"/>
<path d="M488.763 86.4918C487.794 88.0139 486.548 89.3357 485.144 90.4662C484.468 91.0102 485.37 92.0077 486.042 91.4663C487.555 90.2492 488.707 88.7646 489.586 87.0344C489.866 86.4827 489.112 85.9439 488.763 86.4918Z" fill="#231F20"/>
<path d="M493.082 66.1892C492.492 69.9324 494.536 73.0593 497.878 74.6576C498.891 75.1421 499.434 73.4792 498.433 72.9998C495.894 71.7853 494.152 68.8729 493.813 66.1298C493.758 65.6853 493.143 65.8094 493.083 66.1892H493.082Z" fill="#231F20"/>
<path d="M493.085 66.1879C492.903 68.9905 491.329 71.8977 488.831 73.2582C487.845 73.7944 488.64 75.3514 489.631 74.8126C492.872 73.0476 494.621 69.776 493.816 66.1298C493.726 65.7215 493.113 65.7719 493.086 66.1892L493.085 66.1879Z" fill="#231F20"/>
<path d="M494.204 81.8868C494.794 78.1436 492.75 75.0167 489.407 73.4184C488.394 72.9339 487.852 74.5968 488.853 75.0762C491.392 76.2907 493.134 79.2031 493.472 81.9462C493.528 82.3907 494.143 82.2666 494.202 81.8868H494.204Z" fill="#231F20"/>
<path d="M494.201 81.8868C494.383 79.0843 495.957 76.1771 498.455 74.8165C499.441 74.2803 498.646 72.7233 497.655 73.2621C494.414 75.0271 492.665 78.2987 493.47 81.945C493.56 82.3533 494.173 82.3029 494.2 81.8855L494.201 81.8868Z" fill="#231F20"/>
<path d="M410.87 68.7656C416.664 62.8737 423.789 62.3401 431.272 64.9462C431.96 65.1853 432.452 64.1903 431.832 63.795C424.51 59.137 415.283 61.6798 409.9 67.9296C409.423 68.4827 410.359 69.2838 410.87 68.7643V68.7656Z" fill="#231F20"/>
<path d="M485.288 55.5669C491.082 49.675 498.206 49.1413 505.69 51.7475C506.378 51.9865 506.87 50.9916 506.25 50.5962C498.927 45.9383 489.701 48.4811 484.318 54.7309C483.841 55.2839 484.777 56.085 485.288 55.5656V55.5669Z" fill="#231F20"/>
<path d="M465.173 118.589C470.779 120.299 477.687 119.917 482.107 115.667C482.672 115.125 482.044 114.159 481.32 114.525C476.213 117.11 471.356 118.753 465.583 117.364C464.787 117.172 464.368 118.342 465.173 118.587V118.589Z" fill="#231F20"/>
<path d="M464.666 117.934C462.885 123.732 461.894 137.033 471.688 135.854C479.648 134.895 483.539 122.197 482.437 115.542C482.362 115.092 481.603 115.019 481.505 115.492C480.325 121.193 480.175 127.671 475.692 132.077C471.707 135.992 466.306 133.828 465.084 128.733C464.256 125.279 464.679 121.613 465.482 118.205C465.607 117.675 464.831 117.395 464.665 117.932L464.666 117.934Z" fill="#231F20"/>
<path d="M517.036 134.608C510.866 138.144 504.667 141.634 498.526 145.22C496.122 146.623 493.4 148.295 494.523 151.48C495.653 154.687 499.992 155.514 502.867 155.894C508.514 156.639 514.126 155.89 519.141 153.175C519.622 152.915 519.295 152.131 518.768 152.291C515.222 153.368 511.528 154.237 507.808 154.303C504.238 154.367 491.532 152.715 497.946 147.259C498.778 146.551 499.805 146.146 500.514 145.7C502.221 144.628 503.299 144.022 504.146 143.504C505.729 142.536 506.493 142.169 508.077 141.201C511.242 139.266 514.471 137.567 517.637 135.63C518.286 135.233 517.703 134.229 517.039 134.609L517.036 134.608Z" fill="#231F20"/>
<path d="M434.081 141.477C440.778 143.868 447.497 146.21 454.175 148.654C456.789 149.61 459.763 150.777 459.22 154.109C458.674 157.466 454.549 159.045 451.786 159.928C446.359 161.659 440.702 161.912 435.288 160.124C434.77 159.952 434.954 159.124 435.5 159.187C439.18 159.62 442.97 159.824 446.643 159.232C450.168 158.664 462.383 154.797 455.108 150.557C454.164 150.007 453.082 149.791 452.305 149.477C450.437 148.723 449.269 148.317 448.342 147.956C446.613 147.283 445.797 147.057 444.068 146.384C440.609 145.038 437.133 143.935 433.674 142.588C432.966 142.311 433.363 141.221 434.083 141.478L434.081 141.477Z" fill="#231F20"/>
<path d="M439.495 181.667C437.078 184.599 434.66 187.53 432.243 190.464C430.001 193.182 422.919 203.374 419.534 195.74C418.014 192.315 418.958 187.227 418.964 183.579C418.971 179.419 419.294 175.247 419.192 171.091C419.18 170.636 418.344 170.534 418.272 171.011C417.354 177.059 417.33 183.374 417.429 189.465C417.48 192.555 416.914 197.874 420.725 199.606C424.192 201.183 426.957 198.365 428.854 196.119C432.73 191.532 436.245 186.654 439.924 181.941C440.096 181.72 439.676 181.447 439.495 181.667Z" fill="#231F20"/>
<path d="M422.765 200.462C422.065 200.462 421.332 200.307 420.564 199.958C416.986 198.331 417.018 193.906 417.041 190.673C417.044 190.247 417.048 189.842 417.041 189.47C416.95 183.82 416.93 177.262 417.888 170.952C417.95 170.547 418.305 170.281 418.751 170.314C419.219 170.343 419.565 170.665 419.575 171.081C419.633 173.473 419.551 175.904 419.472 178.256C419.412 180.003 419.352 181.808 419.348 183.579C419.347 184.555 419.279 185.617 419.208 186.74C419.02 189.744 418.805 193.15 419.884 195.583C420.571 197.132 421.454 197.986 422.507 198.118C425.415 198.487 429.321 193.528 431.2 191.147C431.484 190.787 431.735 190.469 431.943 190.217L439.197 181.422C439.418 181.153 439.82 181.126 440.11 181.358C440.375 181.571 440.426 181.924 440.227 182.179C439.007 183.741 437.785 185.35 436.602 186.905C434.213 190.048 431.744 193.296 429.147 196.37C427.378 198.464 425.285 200.462 422.765 200.463V200.462ZM418.693 171.084C418.668 171.084 418.646 171.086 418.633 171.094C417.703 177.32 417.722 183.839 417.814 189.458C417.821 189.836 417.817 190.247 417.814 190.679C417.792 193.7 417.762 197.836 420.884 199.256C423.948 200.65 426.484 198.327 428.559 195.871C430.832 193.182 433.01 190.351 435.124 187.576L432.541 190.708C432.336 190.957 432.089 191.27 431.809 191.625C429.692 194.309 425.753 199.308 422.414 198.884C421.074 198.716 419.986 197.711 419.181 195.896C418.025 193.289 418.246 189.784 418.441 186.691C418.511 185.58 418.576 184.529 418.578 183.577C418.58 181.794 418.642 179.981 418.702 178.229C418.782 175.889 418.863 173.469 418.805 171.099C418.792 171.091 418.739 171.082 418.694 171.082L418.693 171.084Z" fill="#231F20"/>
<path d="M498.838 177.417C501.525 180.106 504.21 182.795 506.896 185.484C509.386 187.978 517.404 197.449 520.049 189.528C521.235 185.975 519.813 180.998 519.46 177.368C519.058 173.227 518.34 169.105 518.045 164.959C518.013 164.505 518.836 164.323 518.954 164.791C520.442 170.726 521.067 177.008 521.548 183.081C521.792 186.162 522.861 191.403 519.231 193.491C515.93 195.39 512.91 192.849 510.807 190.793C506.512 186.595 502.549 182.075 498.438 177.733C498.245 177.53 498.638 177.218 498.838 177.419V177.417Z" fill="#231F20"/>
<path d="M516.826 194.557C514.497 194.557 512.379 192.869 510.538 191.068C507.662 188.257 504.894 185.258 502.218 182.358C500.893 180.923 499.522 179.437 498.159 177.998C497.936 177.764 497.953 177.407 498.196 177.171C498.464 176.91 498.866 176.899 499.112 177.146L507.17 185.211C507.401 185.444 507.68 185.735 507.998 186.068C510.094 188.259 514.46 192.823 517.314 192.18C518.35 191.947 519.147 191.014 519.685 189.407C520.527 186.882 519.991 183.512 519.517 180.539C519.34 179.427 519.172 178.377 519.078 177.406C518.907 175.643 518.673 173.853 518.448 172.12C518.145 169.786 517.832 167.374 517.663 164.986C517.633 164.573 517.947 164.217 518.41 164.144C518.853 164.073 519.231 164.3 519.331 164.697C520.884 170.887 521.49 177.416 521.936 183.05C521.965 183.42 522.007 183.822 522.049 184.247C522.38 187.462 522.834 191.866 519.427 193.824C518.535 194.337 517.668 194.557 516.828 194.557H516.826ZM503.752 182.883C506.121 185.444 508.559 188.055 511.077 190.517C513.377 192.764 516.121 194.835 519.039 193.155C522.012 191.446 521.588 187.33 521.279 184.326C521.235 183.896 521.193 183.488 521.163 183.11C520.72 177.508 520.118 171.016 518.58 164.884C518.561 164.888 518.45 164.918 518.425 164.953C518.598 167.295 518.911 169.696 519.212 172.019C519.438 173.758 519.672 175.556 519.844 177.33C519.936 178.278 520.101 179.317 520.277 180.416C520.765 183.476 521.318 186.945 520.415 189.648C519.787 191.531 518.8 192.636 517.482 192.93C514.199 193.663 509.802 189.068 507.44 186.598C507.126 186.271 506.851 185.983 506.623 185.754L503.753 182.88L503.752 182.883Z" fill="#231F20"/>
<path d="M418.412 117.794C417.831 118.437 417.302 119.118 416.87 119.872C416.496 120.523 415.995 121.338 415.987 122.102C415.984 122.412 416.413 122.708 416.659 122.424C417.119 121.891 417.341 121.191 417.722 120.595C418.159 119.912 418.672 119.295 419.251 118.727C419.834 118.154 418.946 117.202 418.412 117.794Z" fill="#231F20"/>
<path d="M423.736 118.841C423.437 119.458 423.14 120.074 422.842 120.692C422.588 121.218 422.18 121.768 422.373 122.365C422.458 122.633 422.692 122.736 422.951 122.638C423.537 122.416 423.724 121.728 423.976 121.206C424.293 120.551 424.609 119.895 424.926 119.24C425.276 118.514 424.082 118.125 423.736 118.842V118.841Z" fill="#231F20"/>
<path d="M430.657 122.094C430.739 122.098 430.747 121.971 430.664 121.967C430.582 121.964 430.575 122.09 430.657 122.094Z" fill="#231F20"/>
<path d="M430.029 120.093C429.785 120.755 429.562 121.426 429.368 122.107C429.192 122.723 429.057 123.287 429.528 123.806C429.664 123.956 429.887 123.993 430.067 123.905C430.659 123.615 430.748 123.112 430.856 122.51C430.977 121.841 431.133 121.178 431.305 120.52C431.523 119.688 430.331 119.276 430.029 120.094V120.093Z" fill="#231F20"/>
<path d="M512.35 107.968C512.055 109.136 511.562 110.613 511.943 111.784C512.037 112.075 512.496 112.259 512.674 111.92C513.236 110.846 513.195 109.517 513.456 108.337C513.615 107.616 512.536 107.234 512.351 107.968H512.35Z" fill="#231F20"/>
<path d="M517.681 106.747C517.479 107.554 517.309 108.369 517.182 109.192C517.068 109.938 516.835 110.755 517.204 111.445C517.38 111.772 517.845 111.8 518.054 111.49C518.437 110.924 518.354 110.253 518.416 109.592C518.494 108.76 518.619 107.935 518.786 107.116C518.932 106.399 517.866 106.007 517.681 106.747Z" fill="#231F20"/>
<path d="M522.791 105.401C522.537 106.391 522.339 107.393 522.23 108.408C522.14 109.243 521.942 110.087 522.436 110.8C522.575 111.001 522.88 110.921 523.002 110.757C523.442 110.162 523.322 109.38 523.405 108.664C523.519 107.692 523.72 106.741 523.981 105.799C524.197 105.02 522.991 104.622 522.791 105.401Z" fill="#231F20"/>
<path d="M464.899 123.394C470.173 123.943 474.358 127.866 474.517 133.277C474.539 134.021 475.702 134.09 475.68 133.339C475.506 127.388 471.022 122.549 464.933 122.767C464.533 122.781 464.492 123.351 464.899 123.394Z" fill="#231F20"/>
</g>
<g clip-path="url(#clip1_14_720)">
<path d="M47.2163 6.07474C53.7648 14.662 60.6579 26.6104 68.9484 35.6332C79.4739 25.4842 88.7232 14.0127 96.4076 1.57452C97.0632 14.2775 101.453 27.0858 109.871 36.6207C123.761 36.4994 138.321 41.1639 148.899 50.1676C159.478 59.1712 166.666 72.0656 168.765 85.796C170.665 98.2198 168.039 112.652 176.387 122.203C178.459 124.575 180.659 126.858 182.403 129.48C184.147 132.103 185.191 135.501 183.989 138.412C182.291 142.525 176.737 143.819 172.551 142.308C168.365 140.797 165.257 137.31 162.338 133.953C154.164 147.512 142.096 158.689 127.954 165.804C130.871 176.11 123.243 188.096 112.671 189.814C111.427 185.006 110.184 180.198 108.94 175.39C94.0817 178.962 78.5503 179.715 63.4161 177.596C63.4656 181.401 63.0237 185.404 60.8446 188.522C58.6654 191.641 54.2992 193.492 50.8997 191.785C46.9355 189.792 46.2703 184.582 44.8713 180.372C41.3537 169.792 31.1473 163.231 23.2045 155.406C8.40377 140.824 0.534385 119.489 2.32107 98.7893C3.7887 81.7807 11.7458 65.4756 24.0133 53.6388C30.8618 47.0297 36.8216 46.6325 38.5461 36.6191C40.2849 26.5147 45.1616 16.1185 47.2179 6.07314L47.2163 6.07474Z" fill="#E4E4E4"/>
<path d="M72.1645 85.5216C68.2162 88.4999 67.1155 94.6416 69.7843 98.8068C72.4532 102.972 78.4928 104.539 82.8495 102.195C79.4229 105.239 75.7937 108.391 71.3253 109.414C65.1725 110.822 58.5091 107.617 54.9054 102.434C51.3017 97.2515 50.4945 90.4732 51.7181 84.2804C52.3562 81.0501 53.5415 77.8755 55.5834 75.2928C59.9703 69.7429 68.2194 67.7951 74.7711 70.464C79.6797 72.4644 85.0796 78.0079 85.5295 83.5817C85.831 87.3003 83.5769 84.8005 81.0979 84.0794C78.102 83.2084 74.6913 83.6152 72.1645 85.5216Z" fill="white"/>
<path d="M74.8062 84.4048C72.7675 85.4625 71.2632 87.3146 69.9885 89.2257C68.9181 90.8305 67.937 92.6124 67.9147 94.5411C67.8924 96.4171 68.7873 98.1894 69.8833 99.7129C71.2121 101.559 72.9765 103.229 75.1827 103.782C79.0576 104.754 83.0856 101.839 84.6346 98.1575C85.9124 95.117 86.7706 88.7535 84.6075 86.0272C82.4427 83.2993 77.716 82.8941 74.8062 84.4048Z" fill="#231F20"/>
<path d="M138.176 68.28C135.442 65.5314 131.736 63.6682 127.863 63.5118C121.557 63.2566 115.694 67.5893 112.717 73.1551C109.843 78.5295 109.299 85.1706 111.569 90.8258C113.839 96.4825 118.976 100.976 124.955 102.163C130.15 103.195 136.212 101.348 138.761 96.7059C135.198 97.8576 131.005 96.2831 128.88 93.1979C126.756 90.1127 126.719 85.7975 128.579 82.5464C129.992 80.0753 132.424 78.2089 135.175 77.4815C136.788 77.0555 138.501 77.0236 140.133 77.3634C141.574 77.6633 143.279 78.9922 143.284 76.904C143.292 74.1234 139.996 70.1066 138.178 68.2784L138.176 68.28Z" fill="white"/>
<path d="M138.307 76.9678C136.445 76.9662 134.636 77.6634 133.065 78.6604C129.922 80.6529 127.553 84.0492 127.365 87.7645C127.177 91.4799 129.484 95.3452 133.039 96.4363C134.668 97.7971 137.155 98.0204 139.001 96.9723C141.166 95.7424 142.159 93.2043 142.986 90.8561C143.662 88.929 144.337 86.9717 144.489 84.9345C144.784 80.9496 142.688 76.971 138.309 76.9678H138.307Z" fill="#231F20"/>
<g opacity="0.28">
<path d="M58.5937 121.657C57.6158 122.145 56.5996 122.841 56.3619 123.91C56.0668 125.235 57.1085 126.492 58.2459 127.236C61.1812 129.152 64.9412 129.166 68.4316 128.845C69.5594 128.742 70.7016 128.606 71.7545 128.188C72.8074 127.77 73.7773 127.033 74.2527 126.004C75.7682 122.721 72.131 120.754 69.5706 120.239C65.8903 119.497 61.958 119.981 58.5937 121.659V121.657Z" fill="#FBA6B9"/>
</g>
<g opacity="0.28">
<path d="M129.742 113.592C129.026 113.997 128.305 114.467 127.837 115.206C127.37 115.945 127.226 117.02 127.698 117.755C128.147 118.454 128.978 118.647 129.731 118.763C133.875 119.4 138.104 119.306 142.223 118.486C143.664 118.199 145.328 117.591 145.769 116.002C146.13 114.703 145.441 113.266 144.455 112.492C140.256 109.195 133.893 111.245 129.742 113.592Z" fill="#FBA6B9"/>
</g>
<g opacity="0.17">
<path d="M43.82 49.4752C42.0701 53.2017 39.7617 56.6331 37.5108 60.0804C32.3454 67.9897 27.3873 76.151 24.3898 85.11C20.8181 95.7854 20.1816 107.503 23.0833 118.379C28.4242 138.39 45.3435 153.891 64.5472 161.645C83.7524 169.4 105.047 170.325 125.712 168.945C106.443 177.631 84.5166 180.308 63.7256 176.512C54.9278 174.905 46.2959 172.15 38.4472 167.864C22.6191 159.219 10.3819 144.235 5.02028 127.016C-0.341371 109.797 1.22038 90.5354 9.23653 74.3803C12.7955 67.2096 17.5733 60.6436 23.3019 55.0522C26.8625 51.5777 30.8107 48.4494 33.7987 44.4709C41.6521 34.0124 40.9885 16.1104 48.6106 6.1449C51.2763 18.5719 49.2439 37.9303 43.8184 49.4752H43.82Z" fill="black"/>
</g>
<g opacity="0.17">
<path d="M80.9655 42.5151C80.7901 42.9442 80.5779 43.4148 80.1504 43.5967C79.5936 43.8344 78.9762 43.4706 78.4897 43.1117C75.481 40.9007 72.7611 38.2988 70.4209 35.3875C75.0168 29.9078 79.6143 24.4281 84.2103 18.9484C88.4329 13.9138 92.6189 7.30784 97.604 3.20325C92.4721 15.8648 86.2905 29.4276 80.9655 42.5151Z" fill="black"/>
</g>
<g opacity="0.17">
<path d="M64.9125 177.793C63.7958 180.565 63.5326 183.609 62.5706 186.439C61.6087 189.269 59.6449 192.072 56.7224 192.697C53.5798 193.369 50.4914 191.304 48.3394 188.918C44.9479 185.16 42.8086 180.305 42.2519 175.279C41.8786 171.906 42.5374 171.313 45.7678 172.249C48.7462 173.112 51.7245 173.974 54.7012 174.837C58.1039 175.823 61.5082 176.808 64.9109 177.794L64.9125 177.793Z" fill="black"/>
</g>
<g opacity="0.17">
<path d="M62.9886 71.7609C53.9834 75.1476 48.8052 84.6904 52.0882 93.9094C52.2637 94.4023 53.0916 94.3688 53.0581 93.7786C52.546 84.9058 55.6664 77.2438 63.2582 72.4006C63.5756 72.198 63.3762 71.6173 62.9886 71.7625V71.7609Z" fill="black"/>
</g>
<g opacity="0.88">
<path d="M152.344 68.4029C156.984 74.2064 160.341 80.7836 162.491 87.8777C162.617 88.2957 163.285 88.2335 163.271 87.7725C163.035 79.7228 159.521 72.5394 153.433 67.3149C152.669 66.6593 151.729 67.6356 152.344 68.4045V68.4029Z" fill="white"/>
</g>
<g opacity="0.88">
<path d="M163.033 91.8787C162.923 92.4593 162.411 94.128 163.383 94.254C164.362 94.38 164.243 92.6268 164.263 92.0462C164.287 91.3538 163.166 91.1767 163.033 91.8803V91.8787Z" fill="white"/>
</g>
<path d="M47.3152 4.90703C44.2141 12.6297 42.5183 20.9728 39.7553 28.8422C37.0051 36.6781 33.1558 44.1902 30.8953 52.1792C30.6353 53.0981 31.8317 53.4682 32.339 52.7886C37.3624 46.0454 40.0313 37.5491 42.6316 29.6351C45.2239 21.7465 48.1384 13.4193 48.9791 5.13196C49.0844 4.10143 47.6391 4.09824 47.3136 4.90703H47.3152Z" fill="#231F20"/>
<path d="M47.4827 5.31058C51.7691 18.6022 62.2117 32.7936 73.8076 40.596C74.6164 41.14 75.347 39.9866 74.7886 39.3246C69.9008 33.545 64.4721 28.2982 59.9432 22.2059C55.8067 16.6417 52.5189 10.5685 48.7142 4.79053C48.3122 4.18114 47.2354 4.54805 47.4811 5.31058H47.4827Z" fill="#231F20"/>
<path d="M70.3363 36.0974C76.5977 32.4666 81.4361 25.4571 85.8916 19.8529C90.529 14.0207 95.2494 7.72901 98.2006 0.864631C98.4287 0.333411 97.7859 -0.328619 97.3232 0.188243C92.1275 5.97423 87.8251 12.5802 82.9021 18.6086C78.512 23.9862 72.5745 28.898 69.1494 34.9121C68.7219 35.6635 69.5802 36.5361 70.3363 36.099V36.0974Z" fill="#231F20"/>
<path d="M96.5128 1.5777C96.1571 14.3046 100.689 27.3905 108.876 37.2061C109.529 37.9894 110.522 36.9891 110.178 36.2027C105.016 24.409 98.8132 14.9172 98.2469 1.5777C98.199 0.465805 96.5447 0.457828 96.5128 1.5777Z" fill="#231F20"/>
<path d="M31.8301 45.9385C8.89994 61.355 -3.2543 89.0806 0.757768 116.42C5.15748 146.404 27.708 170.41 56.8453 178.003C112.075 192.396 183.319 150.432 171.29 87.4614C165.664 58.0066 137.061 28.4194 105.245 37.1311C104.36 37.3736 104.756 38.5908 105.614 38.4679C133.8 34.4702 159.275 56.9553 166.449 83.1351C173.921 110.404 162.888 138.763 141.186 156.139C98.8707 190.017 24.8493 185.482 6.48313 127.405C-2.88579 97.7747 8.25865 66.2684 32.9404 47.8353C34.0459 47.0089 33.0266 45.1361 31.8317 45.9385H31.8301Z" fill="#231F20"/>
<path d="M68.3646 111.42C57.8359 111.42 49.2694 101.705 49.2694 89.7633C49.2694 77.8212 57.8359 68.1046 68.3646 68.1046C78.8933 68.1046 87.4598 77.8196 87.4598 89.7633C87.4598 101.707 78.8933 111.42 68.3646 111.42ZM68.3646 70.8452C59.3466 70.8452 52.0101 79.3319 52.0101 89.7633C52.0101 100.195 59.3466 108.681 68.3646 108.681C77.3826 108.681 84.7191 100.195 84.7191 89.7633C84.7191 79.3319 77.3826 70.8452 68.3646 70.8452Z" fill="#231F20"/>
<path d="M86.3862 87.7788C86.0879 83.2292 81.6291 81.527 77.5373 82.0981C72.1453 82.8511 67.835 88.2462 67.0852 93.4547C66.3897 98.2884 68.7602 103.215 73.5029 104.917C78.1068 106.571 83.2579 104.015 83.9917 99.0573C84.081 98.4495 83.2547 97.9597 82.9133 98.6026C78.5279 106.861 67.3037 101.52 69.7221 92.8087C70.4368 90.2339 72.048 87.7278 74.208 86.1373C77.3475 83.8258 83.2898 83.3935 84.7526 88.0006C85.0238 88.854 86.4484 88.7551 86.3846 87.7804L86.3862 87.7788Z" fill="#231F20"/>
<path d="M127.405 104.258C117.17 104.258 108.844 94.8155 108.844 83.2116C108.844 71.6077 117.171 62.1654 127.405 62.1654C137.638 62.1654 145.966 71.6077 145.966 83.2116C145.966 94.8155 137.638 104.258 127.405 104.258ZM127.405 64.9045C118.68 64.9045 111.583 73.1168 111.583 83.2116C111.583 93.3064 118.68 101.519 127.405 101.519C136.129 101.519 143.225 93.3064 143.225 83.2116C143.225 73.1168 136.128 64.9045 127.405 64.9045Z" fill="#231F20"/>
<path d="M144.91 81.2878C144.637 76.8609 140.277 75.1684 136.292 75.7426C131.049 76.4988 126.863 81.7009 126.129 86.7818C125.449 91.4894 127.761 96.2879 132.379 97.9454C136.857 99.5518 141.89 97.0664 142.579 92.2312C142.665 91.6234 141.847 91.1337 141.501 91.7765C137.232 99.7113 126.421 94.6001 128.758 86.1756C129.449 83.6854 131.007 81.2622 133.095 79.7244C136.125 77.4942 141.85 77.0763 143.276 81.5095C143.551 82.3614 144.969 82.2656 144.908 81.2893L144.91 81.2878Z" fill="#231F20"/>
<path d="M158.822 33.4988C158.91 33.4988 158.91 33.3616 158.822 33.3616C158.734 33.3616 158.734 33.4988 158.822 33.4988Z" fill="#231F20"/>
<path d="M51.6288 67.6356C58.0257 63.4879 64.7226 61.1014 72.4213 61.6709C73.6895 61.7651 73.6832 59.7901 72.4213 59.696C64.5822 59.1153 56.6809 61.2243 50.8854 66.6705C50.3829 67.1427 51.0385 68.0185 51.6288 67.6356Z" fill="#231F20"/>
<path d="M109.361 55.995C112.992 53.859 116.811 52.3706 121.046 52.0739C124.505 51.8314 127.659 52.972 131.033 53.1172C131.562 53.1395 131.65 52.4599 131.281 52.1967C125.052 47.7555 114.298 50.7769 108.764 54.9756C108.177 55.4207 108.686 56.3906 109.359 55.995H109.361Z" fill="#231F20"/>
<path d="M95.3196 120.116C95.9784 122.428 96.4697 124.529 94.9096 126.652C93.4579 128.628 91.3203 128.791 89.0901 129.038C88.4121 129.113 87.9288 130.114 88.6993 130.484C94.6368 133.336 100.858 124.176 96.2783 119.559C95.8779 119.156 95.1632 119.566 95.3196 120.118V120.116Z" fill="#231F20"/>
<path d="M95.2846 126.918C100.284 130.305 110.929 130.249 114.9 125.184C115.291 124.687 114.933 124.034 114.294 124.141C110.95 124.704 108.106 126.468 104.628 126.714C101.544 126.933 98.5819 126.32 95.5414 125.976C94.999 125.915 94.9145 126.666 95.2861 126.918H95.2846Z" fill="#231F20"/>
<path d="M26.3631 133.898C28.8773 141.718 33.4716 148.829 39.6612 154.245C42.6012 156.817 46.3214 159.993 50.4084 160.183C54.5082 160.372 57.2026 157.278 57.1276 153.317C57.0813 150.842 56.4161 148.352 55.9615 145.931C55.4191 143.048 54.8783 140.167 54.3359 137.284C54.0105 135.553 51.3687 136.286 51.6942 138.013C52.219 140.808 52.7454 143.603 53.2703 146.398C53.7074 148.724 54.3997 151.147 54.3917 153.524C54.3854 155.791 53.149 157.408 50.7992 157.452C48.4749 157.495 46.358 155.954 44.5538 154.66C37.238 149.408 31.7551 141.729 29.0049 133.172C28.4673 131.5 25.8207 132.215 26.3631 133.901V133.898Z" fill="#231F20"/>
<path d="M160.822 135.729C163.245 137.241 165.669 138.754 168.092 140.267C170.373 141.69 172.63 143.31 175.175 144.233C179.549 145.821 184.611 144.184 185.531 139.216C186.46 134.21 182.841 128.981 180.394 124.907C177.529 120.137 174.232 115.642 170.596 111.432C169.441 110.095 167.511 112.039 168.658 113.37C171.721 116.916 174.519 120.675 177.014 124.642C178.191 126.513 179.3 128.424 180.342 130.374C181.454 132.454 182.763 134.697 182.932 137.101C183.073 139.095 182.288 141.175 180.275 141.875C178.258 142.577 176.06 141.786 174.278 140.832C170.127 138.608 166.197 135.857 162.202 133.363C160.703 132.427 159.324 134.796 160.819 135.729H160.822Z" fill="#231F20"/>
<path d="M40.8321 172.377C41.0666 179.538 44.4549 192.239 52.4503 194.495C60.2112 196.684 64.4674 187.693 65.0225 181.441C65.1342 180.181 63.322 180.106 62.9407 181.159C62.0426 183.646 61.6374 186.388 60.1953 188.65C57.4148 193.014 52.4711 193.054 49.2694 189.168C45.369 184.434 44.2284 177.887 42.5805 172.141C42.3093 171.195 40.797 171.351 40.8305 172.377H40.8321Z" fill="#231F20"/>
<path d="M107.455 176.363C108.331 179.662 109.012 183.098 110.168 186.311C111.058 188.789 112.681 191.175 115.546 191.362C118.637 191.563 121.18 189.004 122.983 186.811C124.937 184.432 126.513 181.802 127.695 178.96C129.064 175.671 129.831 172.182 130.016 168.626C130.098 167.084 127.7 167.089 127.619 168.626C127.269 175.296 124.522 182.05 119.773 186.807C118.677 187.905 117.053 189.242 115.372 188.942C114.045 188.704 113.252 187.489 112.743 186.343C112.106 184.911 111.787 183.335 111.387 181.825C110.848 179.792 110.307 177.759 109.768 175.725C109.372 174.235 107.059 174.867 107.456 176.363H107.455Z" fill="#231F20"/>
<path d="M58.8792 121.984C58.9207 123.824 58.9622 125.665 59.0052 127.504C59.0148 127.951 59.3913 128.381 59.8619 128.36C60.3165 128.34 60.7297 127.984 60.7185 127.504C60.677 125.665 60.6356 123.824 60.5925 121.984C60.5829 121.538 60.2064 121.107 59.7358 121.128C59.2652 121.148 58.868 121.504 58.8792 121.984Z" fill="#231F20"/>
<path d="M64.6397 122.34C64.753 123.576 64.8678 124.813 64.9811 126.049C65.0226 126.494 65.3448 126.928 65.8377 126.906C66.2669 126.886 66.7375 126.528 66.6944 126.049C66.5811 124.813 66.4663 123.576 66.353 122.34C66.3115 121.895 65.9893 121.461 65.4964 121.483C65.0672 121.503 64.5966 121.861 64.6397 122.34Z" fill="#231F20"/>
<path d="M69.4972 122.294C69.561 123.578 69.6248 124.864 69.6902 126.148C69.7126 126.595 70.0683 127.025 70.5469 127.005C70.992 126.985 71.4275 126.628 71.4035 126.148C71.3397 124.864 71.2759 123.578 71.2105 122.294C71.1882 121.847 70.8324 121.416 70.3539 121.437C69.9088 121.456 69.4733 121.814 69.4972 122.294Z" fill="#231F20"/>
<path d="M129.75 114.566C129.817 115.447 129.886 116.326 129.953 117.206C129.97 117.436 130.036 117.645 130.203 117.813C130.351 117.961 130.595 118.073 130.809 118.063C131.243 118.044 131.703 117.685 131.666 117.206C131.599 116.326 131.53 115.447 131.463 114.566C131.446 114.337 131.38 114.128 131.213 113.96C131.064 113.812 130.82 113.7 130.607 113.71C130.173 113.729 129.713 114.088 129.75 114.566Z" fill="#231F20"/>
<path d="M133.845 113.756C133.78 114.908 133.714 116.058 133.649 117.21C133.623 117.658 134.06 118.085 134.505 118.066C134.99 118.044 135.335 117.69 135.362 117.21C135.427 116.058 135.493 114.908 135.558 113.756C135.584 113.308 135.147 112.88 134.702 112.899C134.217 112.922 133.872 113.276 133.845 113.756Z" fill="#231F20"/>
<path d="M140.221 111.88C139.926 113.647 139.631 115.415 139.336 117.183C139.263 117.623 139.451 118.125 139.934 118.235C140.347 118.33 140.909 118.109 140.987 117.637C141.282 115.87 141.577 114.102 141.872 112.335C141.946 111.894 141.758 111.392 141.274 111.282C140.861 111.188 140.299 111.408 140.221 111.88Z" fill="#231F20"/>
<path d="M68.2625 98.5691C72.0589 98.5691 75.1364 96.7743 75.1364 94.5603C75.1364 92.3462 72.0589 90.5514 68.2625 90.5514C64.4661 90.5514 61.3885 92.3462 61.3885 94.5603C61.3885 96.7743 64.4661 98.5691 68.2625 98.5691Z" fill="white"/>
<path d="M126.722 92.9108C130.519 92.9108 133.596 91.116 133.596 88.9019C133.596 86.6879 130.519 84.8931 126.722 84.8931C122.926 84.8931 119.848 86.6879 119.848 88.9019C119.848 91.116 122.926 92.9108 126.722 92.9108Z" fill="white"/>
</g>
<defs>
<clipPath id="clip0_14_720">
<rect width="165.745" height="193.211" fill="white" transform="translate(381.27 7.25061)"/>
</clipPath>
<clipPath id="clip1_14_720">
<rect width="185.681" height="194.832" fill="white"/>
</clipPath>
</defs>
</svg>
