<svg width="229" height="257" viewBox="0 0 229 257" fill="none" xmlns="http://www.w3.org/2000/svg">
<g clip-path="url(#clip0_25_721)">
<path d="M152.356 143.459C142.211 143.87 131.526 143.685 122.637 148.593C111.139 154.943 105.254 169.939 109.365 182.413C112.769 181.628 115.592 183.7 115.772 186.679C106.502 195.189 105.713 209.013 107.707 221.286C100.065 224.277 91.7647 225.578 83.5735 225.066C81.3899 224.929 79.1555 224.671 77.0472 225.255C74.3886 225.991 73.7209 228.471 71.9632 230.669C71.2657 231.54 69.9864 232.552 69.3572 233.448C65.6664 238.7 61.2308 243.306 57.54 248.558C55.8769 250.926 54.1367 253.365 51.6446 254.834C49.1526 256.304 45.6791 256.53 43.5498 254.571C43.541 242.177 43.5323 229.785 43.5253 217.392C43.5253 215.825 43.499 214.167 42.6753 212.833C41.9165 211.607 40.6056 210.855 39.3911 210.077C31.256 204.856 25.697 196.551 20.3746 188.482C16.6138 182.781 12.8389 177.054 9.98053 170.854C1.98384 153.507 1.66664 133.685 2.5832 114.605C3.7381 90.5399 6.62623 66.5481 11.4439 42.9418C13.7309 31.7345 18.4802 18.5469 29.7015 16.3335C36.9008 14.914 43.9739 18.7923 50.2899 22.5286C66.1326 31.8993 81.9735 41.2699 97.8162 50.6406C103.515 46.7114 106.302 39.7768 107.963 33.0577C109.625 26.3386 110.517 19.3022 113.745 13.179C116.973 7.05572 123.373 1.90335 130.241 2.76208C135.462 3.41577 139.633 7.26602 143.409 10.9323C150.137 17.4639 156.851 24.0288 162.959 31.1439C170.95 40.4497 177.869 50.6598 183.784 61.4045C194.367 80.633 202.471 102.273 205.65 124.067C206.077 126.996 207.695 130.234 207.211 131.969C205.569 137.856 197.381 136.987 188.517 138.886C176.623 141.433 164.513 142.97 152.359 143.462L152.356 143.459Z" fill="#E4E4E4"/>
<path d="M193.815 168.316C191.903 169.935 190.501 172.354 190.71 174.849C190.809 176.041 191.263 177.173 191.74 178.27C192.231 179.401 192.821 180.592 193.908 181.171C194.593 181.535 195.394 181.607 196.17 181.644C198.696 181.763 201.318 181.574 203.566 180.417C204.595 179.888 205.517 179.173 206.43 178.461C208.052 177.198 209.703 175.905 210.844 174.194C212.667 171.462 212.921 167.682 211.233 164.864C209.132 161.355 206.556 161.126 203.566 162.712C200.56 164.306 196.44 166.092 193.815 168.314V168.316Z" fill="#E4E4E4"/>
<path d="M205.168 162.782C203.734 159.813 205.516 156.124 208.198 154.205C210.879 152.286 214.232 151.644 217.414 150.786C220.597 149.927 223.911 148.665 225.835 145.987C226.119 145.593 226.373 145.158 226.431 144.676C226.513 143.995 226.198 143.334 225.872 142.731C224.24 139.72 222.102 136.986 219.575 134.677C217.046 132.365 213.771 130.394 210.381 130.909C208.923 131.13 207.879 132.188 206.538 132.805C206.373 132.88 206.025 133.105 205.86 133.18C184.401 142.863 159.657 140.877 136.31 144.1C132.873 144.575 129.417 145.162 126.203 146.466C119.677 149.11 114.521 154.657 111.75 161.129C108.98 167.601 108.491 174.925 109.717 181.858C112.146 180.401 115.552 182.567 116.033 185.357C116.515 188.147 114.808 190.925 112.571 192.662C111.317 193.636 109.865 194.399 108.876 195.641C107.364 197.539 107.224 200.157 107.234 202.585C107.285 214.034 109.218 225.471 112.937 236.299C113.764 238.711 114.759 241.205 116.726 242.827C118.801 244.54 121.62 244.997 124.302 245.195C131.095 245.694 137.98 244.908 144.485 242.89C147.7 241.893 150.992 240.582 154.32 241.085C156.012 241.341 157.615 242.062 159.319 242.209C164.092 242.624 168.176 238.572 172.941 238.062C177.697 237.552 182.441 240.64 187.096 239.538C189.938 238.865 192.231 236.722 195.024 235.872C199.577 234.485 205.65 236.292 208.429 232.43C210.867 229.04 208.399 224.47 206.638 220.684C202.795 212.421 202.592 202.995 202.457 193.883C202.392 189.514 202.327 185.144 202.262 180.775C198.85 182.608 194.102 181.293 192.12 177.965C190.138 174.637 191.242 169.835 194.479 167.71C196.056 166.674 197.951 166.262 199.688 165.524C203.841 163.761 207.088 159.99 208.212 155.621" fill="#ECD8B9"/>
<path d="M100.432 115.841C97.4006 118.202 95.3607 121.659 94.148 125.306C93.1578 128.284 92.6776 131.431 92.7354 134.57C92.7985 138.043 93.5924 141.648 95.8216 144.312C98.0508 146.976 101.966 148.415 105.15 147.027C106.168 146.583 107.057 145.888 107.874 145.136C114.572 138.979 116.669 128.869 114.722 119.982C114.116 117.217 113.028 113.675 109.95 113.086C106.684 112.46 102.97 113.866 100.429 115.844L100.432 115.841Z" fill="#231F20"/>
<path d="M157.782 97.1222C155.22 102.509 155.104 108.852 156.658 114.612C157.102 116.258 157.682 117.882 158.574 119.335C159.482 120.814 160.691 122.083 161.956 123.27C163.221 124.458 164.653 125.623 166.371 125.872C168.127 126.128 169.876 125.376 171.386 124.444C172.387 123.825 173.347 123.108 174.073 122.181C174.648 121.447 175.061 120.599 175.4 119.731C176.784 116.186 176.952 112.178 175.873 108.528C175.086 105.869 173.675 103.442 172.606 100.883C172.364 100.303 172.126 99.6932 171.665 99.2656C171.364 98.9852 170.989 98.8011 170.64 98.5838C169.751 98.0283 169.036 97.2379 168.214 96.5912C165.351 94.3375 159.653 93.1931 157.783 97.124L157.782 97.1222Z" fill="#231F20"/>
<path d="M104.902 107.007C103.132 106.241 101.207 105.901 99.2918 105.664C98.023 105.506 96.7296 105.393 95.4713 105.613C93.5541 105.95 91.8647 107.033 90.2313 108.091C88.8171 109.01 87.3818 109.946 86.2899 111.23C85.1981 112.515 84.5059 114.085 83.8277 115.629C83.2546 116.935 82.6815 118.242 82.2241 119.593C79.2326 128.443 81.8701 138.934 88.6926 145.316C89.1641 145.756 89.6583 146.182 90.2296 146.484C90.7361 146.75 91.2898 146.909 91.8384 147.069C93.0792 147.428 94.3199 147.786 95.5607 148.145C96.6946 148.473 98.0913 148.737 98.908 147.886C97.8845 146.99 96.8611 146.096 95.8376 145.201C95.0332 144.496 94.213 143.778 93.6627 142.861C92.5411 140.998 92.6989 138.653 92.0697 136.571C91.9821 136.28 91.8594 135.972 91.5983 135.818C91.3547 135.674 91.1917 135.436 90.9446 135.387C90.2243 135.243 89.7441 135.054 89.2867 134.731C88.5261 134.193 88.0389 133.673 87.9478 132.746C87.8234 131.479 88.7627 130.629 89.9404 130.143C91.1181 129.658 93.2965 129.454 92.9652 127.998C92.8776 127.614 93.1475 127.234 93.2176 126.847C93.4121 125.765 93.8608 124.751 94.3182 123.752C95.1576 121.922 96.0462 120.094 97.2782 118.503C98.9097 116.393 101.128 114.74 103.619 113.782C105.04 113.235 106.533 112.918 108.037 112.697C109.009 112.555 110.806 112.872 110.599 111.754C110.457 110.987 108.782 109.637 108.224 109.139C107.239 108.26 106.114 107.534 104.903 107.01L104.902 107.007Z" fill="white"/>
<path d="M166.181 88.3037C168.98 87.1173 172.296 86.9823 175.019 88.3335C176.099 88.868 177.056 89.6128 178.005 90.3541C178.233 90.5329 178.466 90.7151 178.622 90.9587C178.803 91.2444 178.862 91.5879 178.992 91.9016C179.332 92.7288 180.114 93.2703 180.759 93.8924C182.876 95.9341 183.592 98.9887 184.211 101.865C184.444 102.942 184.677 104.024 184.789 105.121C185.07 107.825 184.621 110.547 184.174 113.228C184.038 114.052 183.899 114.879 183.659 115.68C183.235 117.101 182.502 118.408 181.777 119.702C181.192 120.744 180.601 121.798 179.812 122.697C178.049 124.71 175.47 125.79 172.942 126.671C172.368 126.871 171.484 126.89 171.409 126.288C171.363 125.923 171.695 125.636 171.984 125.408C174.656 123.307 176.463 120.134 176.905 116.763C176.949 116.424 176.987 116.069 177.187 115.794C177.371 115.539 177.667 115.394 177.948 115.25C179.523 114.444 181.132 113.124 181.149 111.356C181.151 111.167 181.132 110.969 181.027 110.813C180.93 110.667 180.774 110.575 180.62 110.492C179.388 109.831 177.949 109.565 176.561 109.737C175.727 108.121 174.893 106.503 174.059 104.888C173.941 104.662 173.826 104.436 173.708 104.209C172.878 102.601 172.369 100.936 171.663 99.2691C171.083 97.9022 169.225 97.4833 168.211 96.5931C167.249 95.7501 165.592 95.4609 164.381 95.0491C163.16 94.6337 161.889 95.0806 160.643 94.9737C159.122 94.844 158.81 94.3796 159.804 93.3351C161.718 91.3215 163.568 89.4148 166.18 88.3072L166.181 88.3037Z" fill="white"/>
<g opacity="0.25">
<path d="M88.0179 156.751C86.4845 156.744 84.951 156.82 83.4246 156.946C81.1779 157.133 78.8944 157.449 76.865 158.434C74.8356 159.419 73.0743 161.173 72.5836 163.374C72.1332 165.402 72.8745 167.65 74.443 169.014C74.8566 169.373 75.3368 169.68 75.8766 169.774C76.5373 169.892 77.205 169.685 77.8674 169.583C81.2287 169.068 84.6426 171.274 87.9478 170.466C88.8661 170.242 89.7336 169.79 90.6747 169.715C91.8033 169.623 92.8917 170.081 93.9992 170.314C96.8786 170.92 100.158 169.806 101.742 167.326C107.551 158.234 93.0669 156.771 88.0214 156.75L88.0179 156.751Z" fill="#FBA6B9"/>
</g>
<g opacity="0.25">
<path d="M185.335 128.196C187.562 124.905 191.835 122.662 195.58 123.995C196.065 124.169 196.54 124.402 196.912 124.761C197.576 125.404 197.828 126.382 197.79 127.308C197.66 130.36 194.882 132.532 192.364 134.262C190.452 135.574 188.51 136.903 186.314 137.651C184.772 138.177 182.044 138.755 180.526 137.84C178.7 136.74 179.259 136.119 179.735 134.016C180.116 132.334 179.585 131.715 181.314 130.565C182.964 129.468 184.082 130.078 185.338 128.196H185.335Z" fill="#FBA6B9"/>
</g>
<g opacity="0.17">
<path d="M18.1122 42.453C13.773 70.5439 14.5792 99.7459 23.3067 126.798C32.0342 153.849 49.0545 178.632 72.8413 194.194C77.9866 197.56 83.5614 200.536 89.6426 201.447C95.7238 202.359 103.324 200.494 107.595 196.071C107.926 203.177 107.753 212.681 107.422 219.628C107.294 222.316 104.833 222.726 102.264 223.496C98.2281 224.703 92.9688 225.285 88.7418 225.429C63.8737 226.266 39.8135 212.628 24.6596 192.893C9.50568 173.157 2.56751 148.017 1.4792 123.158C0.390892 98.3001 4.79845 73.5232 10.4398 49.2895C12.0784 42.2515 16.6682 19.6161 25.9705 18.9747C21.6961 25.869 19.3513 34.4283 18.1122 42.4548V42.453Z" fill="black"/>
</g>
<g opacity="0.17">
<path d="M110.278 47.4984C111.847 45.2902 112.301 42.4985 112.585 39.8049C113.478 31.3052 113.089 22.6724 111.433 14.2884C110.487 19.2515 109.539 24.2146 108.592 29.1794C107.846 33.0875 107.089 37.0377 105.457 40.6654C103.771 44.4175 101.207 47.2057 97.7707 49.3631C101.737 52.3353 107.231 51.7903 110.278 47.4984Z" fill="black"/>
</g>
<g opacity="0.17">
<path d="M45.9138 213.131C42.8049 216.601 42.6875 222.092 44.8395 226.224C46.9899 230.357 51.0259 233.247 55.3388 235.006C58.9279 236.471 63.1007 237.226 66.6285 235.616C69.0732 234.5 71.411 231.485 73.5246 228.417C74.1081 227.568 74.548 226.815 75.2858 226.175C75.3945 226.082 75.4979 226.005 75.6626 225.89C76.1078 225.576 76.1638 225.544 75.9255 225.574C75.7923 225.59 75.9483 225.544 76.0166 225.464C76.6002 224.778 76.7527 224.277 77.3135 223.879C72.7184 224.105 64.4886 221.263 60.2493 219.637C58.9385 219.134 46.0786 212.949 45.9156 213.131H45.9138Z" fill="black"/>
</g>
<g opacity="0.17">
<path d="M98.2001 105.988C74.1487 103.002 75.719 147.663 97.9618 150.085C99.8177 150.286 100.764 147.619 99.4724 146.436C93.7382 141.189 88.0128 137.942 85.6224 129.894C82.559 119.575 88.5508 110.587 98.4122 107.564C99.3305 107.282 99.0624 106.097 98.1984 105.99L98.2001 105.988Z" fill="black"/>
</g>
<g opacity="0.17">
<path d="M165.82 87.3609C164.248 87.934 162.822 88.805 161.669 90.03C160.694 91.0657 158.865 93.1792 159.885 94.6268C160.23 95.1157 160.787 95.4084 161.394 95.2402C162.778 94.8564 162.967 93.0898 163.735 92.0243C164.513 90.943 165.559 90.1421 166.747 89.5585C167.936 88.975 167.107 86.893 165.82 87.3609Z" fill="black"/>
</g>
<g opacity="0.17">
<path d="M70.8979 91.4459C73.6668 86.7825 77.2192 83.3651 83.0392 84.1169C84.124 84.2571 84.3904 82.3609 83.3004 82.1927C77.3804 81.2779 70.1864 84.5358 69.736 91.1322C69.6922 91.7684 70.5965 91.9541 70.8979 91.4477V91.4459Z" fill="black"/>
</g>
<g opacity="0.17">
<path d="M152.102 71.1887C151.904 71.2746 151.704 71.3622 151.506 71.4498L152.382 72.5854C152.854 72.1876 153.365 71.8108 153.807 71.3815C154.235 70.9644 154.55 70.0706 154.492 69.466C154.441 68.949 154.021 68.5529 153.477 68.6931C152.817 68.8631 152.061 69.4888 151.816 70.1161C151.588 70.6997 151.387 71.2938 151.173 71.8827C150.88 72.6853 152.065 73.0937 152.494 72.44C152.608 72.2682 152.719 72.0947 152.831 71.9212C153.15 71.4253 152.543 70.9959 152.1 71.1904L152.102 71.1887Z" fill="black"/>
</g>
<g opacity="0.17">
<path d="M127.497 147.219C134.626 145.774 141.256 149.251 142.523 156.825C142.795 158.446 142.363 160.409 143.32 161.9C145.919 165.957 152.034 162.922 155.5 162.132C172.205 158.323 189.313 157.186 206.389 158.362C208.105 158.479 208.098 155.809 206.389 155.691C188.283 154.443 170.107 155.821 152.454 160.106C149.989 160.705 146.79 161.32 145.241 158.351C144.813 157.531 145.122 155.553 144.901 154.598C144.281 151.928 142.831 149.415 140.76 147.609C136.629 144.005 131.834 143.965 127.19 146.487C126.773 146.713 127.069 147.307 127.499 147.219H127.497Z" fill="black"/>
</g>
<g opacity="0.17">
<path d="M133.019 143.55C146.653 144.286 160.819 142.971 174.394 141.508C186.595 140.192 198.51 137.716 209.777 132.742C211.035 132.186 209.945 130.357 208.699 130.897C184.332 141.44 158.341 138.092 132.844 142.237C132.067 142.363 132.307 143.511 133.021 143.55H133.019Z" fill="black"/>
</g>
<g opacity="0.17">
<path d="M128.582 143.925C112.523 147.758 103.167 163.602 105.215 179.615C105.654 183.046 110.529 182.447 109.938 178.975C107.396 164.052 115.971 151.643 129.405 145.877C130.553 145.385 129.712 143.655 128.582 143.925Z" fill="black"/>
</g>
<g opacity="0.17">
<path d="M204.921 163.125C205.003 163.092 205.084 163.059 205.166 163.025C204.788 162.647 204.411 162.27 204.032 161.891C203.831 162.479 203.603 162.797 203.251 163.153C202.721 163.689 202.469 164.762 202.958 165.419C203.345 165.94 203.861 166.429 204.572 166.345C205.546 166.231 206.484 165.58 206.442 164.475C206.403 163.476 206.181 162.554 205.716 161.671C205.313 160.903 204.299 161.208 204.032 161.891C204.001 161.974 203.967 162.056 203.936 162.14C203.726 162.68 204.378 163.348 204.923 163.127L204.921 163.125Z" fill="black"/>
</g>
<g opacity="0.64">
<path d="M174.956 49.7941C184.967 67.4523 193.307 85.4225 196.913 105.534C197.336 107.89 200.983 106.905 200.52 104.541C196.608 84.5813 188.961 64.8253 175.585 49.3087C175.282 48.9564 174.737 49.4068 174.956 49.7941Z" fill="white"/>
</g>
<g opacity="0.64">
<path d="M79.8703 62.8538C84.723 61.1381 89.3496 59.4715 93.9341 57.1267C94.9927 56.5851 94.2496 54.731 93.1105 55.1744C88.3016 57.046 83.9746 59.3856 79.4584 61.8777C78.9397 62.1651 79.2902 63.0589 79.8703 62.8538Z" fill="white"/>
</g>
<g opacity="0.64">
<path d="M113.002 184.809C114.418 185.82 107.602 191.213 107.033 191.793C106.195 192.646 107.038 194.12 108.202 193.801C110.487 193.179 112.923 190.845 114.193 188.898C115.275 187.236 116.395 184.24 113.945 183.193C112.846 182.724 112.005 184.096 113 184.807L113.002 184.809Z" fill="white"/>
</g>
<path d="M101.375 51.0699C88.3104 43.0505 75.1613 35.2185 61.9124 27.5057C52.2859 21.9012 40.113 12.287 28.1644 15.4257C19.7261 17.6426 15.0574 25.6165 12.3778 33.3311C7.99828 45.9351 6.26505 59.9078 4.11473 73.0341C-3.52094 119.675 -2.86726 177.855 38.1344 209.866C57.7572 225.187 84.8492 231.34 108.329 221.706C110.108 220.975 109.325 218.043 107.525 218.787C87.7654 226.943 65.505 223.627 47.4244 212.763C28.224 201.226 15.5989 181.562 9.00247 160.512C1.88905 137.812 1.64194 113.787 4.28122 90.3313C5.77435 77.0614 8.19632 63.9123 10.7672 50.8158C12.6494 41.2226 14.1811 29.6403 21.3156 22.3008C33.2063 10.0665 50.5439 23.6537 61.7932 30.1695C74.7004 37.6475 87.6672 44.9712 100.746 52.146C101.451 52.5333 102.061 51.4905 101.375 51.0699Z" fill="#231F20"/>
<path d="M84.3218 226.694C68.3109 226.694 51.8426 221.007 37.9224 210.138C19.3143 195.61 7.41131 174.366 2.5446 146.993C-1.21803 125.835 -0.804441 100.932 3.77311 72.9746C4.11835 70.8646 4.45308 68.7335 4.78956 66.5884C6.54732 55.3952 8.36467 43.8216 12.0502 33.2137C15.5815 23.0509 20.974 16.9522 28.0769 15.0858C38.2414 12.4132 48.3411 18.7047 57.2508 24.2532C58.942 25.3064 60.5403 26.3018 62.0878 27.2026C76.064 35.3378 88.973 43.047 101.558 50.7703C102.083 51.0928 102.12 51.6729 101.884 52.0812C101.647 52.4895 101.123 52.7472 100.578 52.4492C87.8075 45.4427 74.6988 38.0471 61.6198 30.4693C60.1705 29.6298 58.6301 28.6782 56.9985 27.6723C45.7421 20.7254 31.7343 12.0785 21.5663 22.5427C15.231 29.0603 13.3453 39.0671 11.6804 47.8962C11.4894 48.9074 11.3019 49.9063 11.1091 50.8825C8.242 65.4896 6.0426 77.794 4.62833 90.37C1.5632 117.609 3.1019 140.518 9.33381 160.405C16.5699 183.495 30.1606 201.982 47.6033 212.462C66.5549 223.85 88.9064 226.091 107.392 218.462C107.972 218.224 108.534 218.278 108.976 218.62C109.49 219.016 109.759 219.74 109.661 220.464C109.565 221.182 109.127 221.752 108.461 222.025C100.818 225.161 92.6304 226.692 84.3201 226.694H84.3218ZM33.0417 15.1524C31.4469 15.1524 29.8486 15.3417 28.2539 15.7605C21.3875 17.5638 16.1563 23.5136 12.7074 33.4433C9.04114 43.9916 7.22905 55.5354 5.47654 66.6989C5.14006 68.8439 4.80533 70.9767 4.46009 73.0885C-6.14082 137.831 5.26274 183.756 38.3518 209.589C59.3013 225.946 86.0656 230.465 108.2 221.382C108.789 221.14 108.938 220.646 108.974 220.373C109.037 219.898 108.869 219.416 108.554 219.172C108.31 218.985 108.009 218.964 107.658 219.106C88.9677 226.82 66.3849 224.559 47.2458 213.059C29.6559 202.49 15.9565 183.864 8.66961 160.614C2.4079 140.632 0.86044 117.63 3.93609 90.2928C5.35387 77.6941 7.55677 65.3722 10.4256 50.7493C10.6166 49.7732 10.8042 48.7777 10.9952 47.7683C12.6776 38.8428 14.5861 28.7273 21.0668 22.059C31.6222 11.197 46.501 20.3784 57.363 27.0817C58.9893 28.0859 60.5263 29.034 61.9686 29.8699C75.044 37.446 88.1475 44.8381 100.915 51.8411C101.13 51.9585 101.251 51.7885 101.283 51.7342C101.314 51.6799 101.4 51.4924 101.193 51.3662C88.6137 43.6464 75.7082 35.9389 61.7373 27.8055C60.1793 26.8994 58.5775 25.9005 56.8811 24.8455C49.5118 20.2557 41.317 15.1524 33.04 15.1524H33.0417Z" fill="#231F20"/>
<path d="M80.9762 61.946C94.7912 53.1905 110.984 49.0335 127.309 50.0325C128.341 50.0956 128.332 48.5008 127.309 48.4289C110.436 47.2705 94.502 51.6781 80.6169 61.3309C80.2454 61.5885 80.5836 62.1949 80.9762 61.946Z" fill="#231F20"/>
<path d="M80.7872 62.3526C80.5734 62.3526 80.3684 62.2457 80.2334 62.0441C80.0389 61.7515 80.0547 61.2976 80.4174 61.0452C94.278 51.4099 110.496 46.9235 127.332 48.0819C128.093 48.1345 128.462 48.7829 128.424 49.3647C128.389 49.901 127.98 50.4127 127.286 50.3777C110.93 49.377 94.9843 53.4779 81.1605 62.2387C81.0396 62.314 80.9116 62.3508 80.7855 62.3508L80.7872 62.3526ZM122.16 48.6006C107.331 48.6006 93.1319 53.0538 80.8152 61.6165L80.7907 61.6516C94.7372 52.8137 110.83 48.6725 127.33 49.6837C127.672 49.7065 127.723 49.4366 127.732 49.3192C127.744 49.1422 127.665 48.8004 127.286 48.7759C125.571 48.6585 123.862 48.5989 122.162 48.5989L122.16 48.6006Z" fill="#231F20"/>
<path d="M99.0517 48.7023C114.258 38.2679 105.611 14.1552 121.196 4.6566C131.54 -1.64892 142.162 10.2541 149.217 16.8067C155.295 22.4498 160.971 28.5187 166.216 34.9434C189.003 62.8573 203.135 97.2117 206.731 133.04C206.878 134.509 209.195 134.524 209.046 133.04C205.231 95.0193 189.404 58.6566 164.315 29.8331C157.782 22.3271 150.633 15.3557 142.94 9.04137C137.535 4.60578 131.3 -0.72885 123.809 1.67734C104.099 8.0109 112.963 36.9378 98.8361 48.4219C98.6801 48.5481 98.8852 48.8163 99.0517 48.7023Z" fill="#231F20"/>
<path d="M208.004 134.496C207.765 134.496 207.522 134.446 207.294 134.344C206.773 134.109 206.442 133.646 206.384 133.075C202.762 96.9927 188.78 63.1343 165.945 35.1625C160.688 28.7221 154.98 22.6321 148.979 17.0609C148.287 16.4195 147.563 15.7272 146.808 15.0052C139.919 8.42101 130.483 -0.59388 121.375 4.95456C113.633 9.67406 111.999 17.9284 110.27 26.6646C108.608 35.0626 106.889 43.7463 99.2482 48.9898C99.0204 49.1475 98.7155 49.0914 98.542 48.8584C98.3702 48.6288 98.4035 48.3256 98.6156 48.1521C104.798 43.1259 106.544 34.5299 108.233 26.2177C110.359 15.7518 112.559 4.92827 123.701 1.34615C131.2 -1.0618 137.344 3.99418 142.77 8.45431L143.159 8.77327C150.789 15.0367 157.996 22.045 164.575 29.6053C189.678 58.4446 205.592 95.1648 209.39 133.005C209.442 133.518 209.262 133.953 208.882 134.225C208.634 134.403 208.322 134.495 208.002 134.495L208.004 134.496ZM127.376 2.51331C134.742 2.51331 141.803 9.26047 147.288 14.5022C148.042 15.2225 148.764 15.913 149.452 16.5526C155.476 22.1449 161.206 28.2594 166.485 34.7244C189.404 62.803 203.442 96.7877 207.075 133.007C207.119 133.441 207.409 133.634 207.579 133.709C207.881 133.846 208.249 133.827 208.477 133.662C208.65 133.536 208.726 133.34 208.699 133.075C204.916 95.3769 189.061 58.7933 164.052 30.0627C157.498 22.5322 150.322 15.5502 142.719 9.31129L142.33 8.99233C137.041 4.64611 131.044 -0.283686 123.915 2.01035C113.158 5.46629 111.097 15.6151 108.915 26.3579C107.476 33.4451 105.994 40.7337 101.775 45.9562C106.759 40.8231 108.193 33.5747 109.588 26.5297C111.27 18.03 113.011 9.23944 121.014 4.36046C123.138 3.06535 125.269 2.51331 127.376 2.51331Z" fill="#231F20"/>
<path d="M70.5894 92.131C73.2515 86.0796 80.2195 82.8603 86.6108 84.4638C87.6133 84.7162 88.0216 83.2248 87.0367 82.9181C79.8357 80.6714 72.3367 84.76 69.9392 91.8559C69.8113 92.2327 70.4264 92.5026 70.5894 92.131Z" fill="#231F20"/>
<path d="M70.3141 92.5693C70.2353 92.5693 70.1547 92.5535 70.074 92.5237C69.7533 92.3993 69.5868 92.0768 69.6902 91.7737C72.1823 84.3991 79.8373 80.4016 87.1137 82.6694C87.7603 82.8709 87.9566 83.479 87.8182 83.9767C87.6797 84.4674 87.1978 84.8793 86.5476 84.7163C80.1772 83.1163 73.4196 86.3496 70.8294 92.2345C70.7365 92.4466 70.5385 92.5693 70.3159 92.5693H70.3141ZM82.9795 82.5555C77.3434 82.5555 72.1315 86.1779 70.1845 91.9384C70.1652 91.9962 70.2616 92.0348 70.2633 92.0365C70.3317 92.0628 70.3457 92.0348 70.3492 92.0243C73.041 85.908 80.0581 82.5485 86.672 84.2098C87.0418 84.3027 87.2486 84.0661 87.3134 83.8348C87.3853 83.5789 87.3029 83.274 86.9559 83.1671C85.631 82.7535 84.2921 82.5572 82.9778 82.5572L82.9795 82.5555Z" fill="#231F20"/>
<path d="M152.677 72.17C154.743 69.4081 158.148 67.5592 161.562 67.1228C164.928 66.6934 167.119 68.127 170.105 69.1592C170.603 69.331 171.116 68.6843 170.81 68.2444C168.857 65.4386 164.338 64.9339 161.204 65.3633C157.103 65.9241 153.958 68.134 152.216 71.9019C152.07 72.2173 152.472 72.4469 152.677 72.1718V72.17Z" fill="#231F20"/>
<path d="M152.445 72.554C152.354 72.554 152.261 72.5295 152.177 72.4786C151.942 72.3384 151.858 72.0493 151.979 71.7916C153.732 67.9992 156.909 65.6877 161.167 65.1041C164.699 64.6221 169.117 65.3582 171.024 68.0956C171.225 68.3865 171.206 68.7738 170.973 69.0823C170.738 69.3925 170.354 69.5257 170.021 69.4082C169.31 69.1629 168.644 68.8948 168 68.6354C165.906 67.7924 164.098 67.0634 161.593 67.3841C158.176 67.8205 154.837 69.7149 152.885 72.3279C152.775 72.4751 152.612 72.5557 152.447 72.5557L152.445 72.554ZM163.237 65.4861C162.555 65.4861 161.882 65.5334 161.238 65.6211C157.163 66.1784 154.126 68.3883 152.45 72.0107L152.675 72.1702L152.466 72.0142C154.532 69.2505 157.92 67.3263 161.527 66.8654C164.164 66.5289 166.122 67.3157 168.195 68.1499C168.833 68.4076 169.492 68.6722 170.189 68.914C170.338 68.9649 170.48 68.8667 170.556 68.7668C170.631 68.6687 170.68 68.518 170.594 68.3935C169.154 66.3256 166.127 65.4861 163.235 65.4861H163.237Z" fill="#231F20"/>
<path d="M71.8563 229.95C68.5003 234.216 65.146 238.48 61.7899 242.745C58.6792 246.701 48.7811 261.59 44.6014 250.008C42.7262 244.81 44.2105 237.246 44.3788 231.792C44.5716 225.571 45.1867 219.347 45.234 213.128C45.2393 212.446 44.1282 212.252 44.009 212.961C42.5176 221.962 42.2057 231.403 42.069 240.518C41.9989 245.143 41.0087 253.067 46.0191 255.849C50.5757 258.377 54.3874 254.301 57.0179 251.036C62.3928 244.368 67.2963 237.249 72.4154 230.381C72.6555 230.06 72.1069 229.631 71.8563 229.95Z" fill="#231F20"/>
<path d="M48.9125 257C47.9346 257 46.9147 256.742 45.8509 256.154C41.2629 253.605 41.4977 247.081 41.6694 242.316C41.6922 241.676 41.715 241.07 41.722 240.512C41.8482 232.071 42.1128 222.278 43.6673 212.905C43.7462 212.43 44.1475 212.125 44.6487 212.171C45.1043 212.209 45.5863 212.56 45.5828 213.131C45.5547 216.701 45.3374 220.329 45.1271 223.837C44.9712 226.449 44.8082 229.151 44.7276 231.804C44.682 233.255 44.547 234.834 44.4033 236.508C44.016 241.022 43.5762 246.14 44.9291 249.89C45.8211 252.361 47.0321 253.73 48.5287 253.956C52.4509 254.539 57.6821 247.61 60.4878 243.884C60.8822 243.36 61.2292 242.899 61.5183 242.533L71.5847 229.738C71.8125 229.449 72.2174 229.414 72.5311 229.652C72.8465 229.894 72.9166 230.299 72.6976 230.593C71.0011 232.87 69.2977 235.215 67.6521 237.482C64.3276 242.062 60.8909 246.795 57.293 251.259C54.9184 254.206 52.1389 257.003 48.916 257.003L48.9125 257ZM44.5523 212.861C44.3806 212.861 44.3613 212.979 44.3543 213.019C42.8086 222.344 42.5457 232.106 42.4195 240.523C42.4107 241.085 42.3897 241.697 42.3652 242.342C42.2004 246.927 41.9744 253.206 46.1891 255.545C50.3005 257.829 53.8336 254.436 56.7498 250.819C60.3354 246.369 63.7685 241.643 67.0878 237.07C68.7351 234.801 70.4386 232.454 72.1385 230.174L72.1297 230.167L62.0651 242.961C61.7794 243.323 61.436 243.781 61.0434 244.3C58.15 248.143 52.7681 255.3 48.4253 254.641C46.6571 254.375 45.2603 252.855 44.2754 250.125C42.8699 246.231 43.3168 241.033 43.7093 236.448C43.8531 234.785 43.988 233.215 44.0318 231.781C44.1142 229.118 44.2772 226.412 44.4331 223.795C44.6434 220.297 44.8607 216.678 44.887 213.126C44.887 212.954 44.71 212.875 44.5891 212.865C44.5751 212.865 44.5628 212.865 44.5523 212.865V212.861Z" fill="#231F20"/>
<path d="M205.893 134.123C210.132 130.702 215.751 132.344 219.557 135.56C222.375 137.942 223.923 141.293 226.419 143.918C226.83 144.351 227.68 143.907 227.46 143.312C224.464 135.18 213.34 125.373 205.262 133.494C204.849 133.909 205.455 134.475 205.891 134.123H205.893Z" fill="#231F20"/>
<path d="M207.607 132.446C185.03 138.706 162.263 142.731 138.765 142.149C137.276 142.113 137.274 144.437 138.765 144.465C162.207 144.899 185.927 141.755 207.749 132.961C208.059 132.837 207.947 132.351 207.607 132.446Z" fill="#231F20"/>
<path d="M129.99 145.06C134.328 145.143 138.504 146.801 141.378 150.134C144.426 153.667 144.671 157.615 144.857 162.035C144.903 163.115 146.489 163.395 146.781 162.296C149.492 152.125 139.394 143.385 129.99 143.459C128.958 143.467 128.958 145.041 129.99 145.062V145.06Z" fill="#231F20"/>
<path d="M139.461 143.511C121.298 143.033 103.584 160.698 108.71 179.592C108.997 180.652 110.645 180.447 110.634 179.331C110.543 170.454 111.206 162.587 117.154 155.409C122.672 148.749 130.935 145.006 139.461 144.223C139.912 144.181 139.927 143.523 139.461 143.511Z" fill="#231F20"/>
<path d="M147.307 163.227C162.366 156.995 178.463 157.666 194.386 156.39C206.186 155.444 219.793 153.252 228.72 144.771C229.514 144.016 228.473 142.614 227.533 143.233C214.631 151.736 201.368 153.928 186.12 154.659C172.589 155.307 159.059 155.642 146.897 162.251C146.378 162.533 146.739 163.462 147.309 163.227H147.307Z" fill="#231F20"/>
<path d="M95.6588 183.631C99.4775 183.396 103.296 183.163 107.115 182.928C108.303 182.855 110.429 182.406 111.622 182.681C118.461 184.266 113.965 188.836 112.159 190.543C107.132 195.296 101.132 197.523 94.7913 199.919C93.887 200.261 93.9081 201.862 95.0402 201.756C99.6983 201.316 103.911 199.39 107.791 196.801C111.035 194.635 115.248 191.635 116.647 187.837C117.688 185.014 116.705 182.064 113.657 181.26C111.358 180.654 108.596 181.325 106.297 181.546C102.751 181.884 99.2059 182.224 95.6588 182.562C94.9859 182.627 94.9648 183.673 95.6588 183.631Z" fill="#231F20"/>
<path d="M94.9368 202.11C94.3865 202.11 93.9607 201.778 93.8362 201.239C93.6978 200.638 93.9694 199.859 94.6687 199.595L94.9263 199.497C101.141 197.148 107.012 194.931 111.919 190.291C114.213 188.121 115.206 186.397 114.873 185.165C114.61 184.192 113.489 183.47 111.544 183.02C110.767 182.839 109.465 183.004 108.421 183.137C107.94 183.197 107.497 183.253 107.136 183.275L95.6799 183.978C95.212 184.012 94.8387 183.687 94.8001 183.218C94.7651 182.767 95.063 182.27 95.6256 182.215L106.263 181.199C106.817 181.146 107.397 181.067 107.991 180.985C109.931 180.72 111.936 180.447 113.745 180.924C115.152 181.295 116.221 182.117 116.836 183.298C117.525 184.621 117.574 186.32 116.971 187.956C115.625 191.609 111.856 194.504 107.982 197.089C103.529 200.061 99.3058 201.701 95.07 202.101C95.0244 202.104 94.9789 202.106 94.9351 202.106L94.9368 202.11ZM110.669 182.245C111.046 182.245 111.396 182.273 111.7 182.343C113.915 182.857 115.208 183.745 115.545 184.984C116.156 187.241 113.328 189.917 112.397 190.797C107.388 195.534 101.454 197.776 95.1717 200.149L94.914 200.247C94.5881 200.371 94.4426 200.778 94.5145 201.081C94.5723 201.326 94.744 201.442 95.0069 201.41C99.1253 201.021 103.244 199.42 107.599 196.512C111.374 193.992 115.043 191.183 116.321 187.718C116.855 186.265 116.82 184.77 116.221 183.621C115.699 182.617 114.78 181.917 113.568 181.597C111.892 181.155 109.956 181.42 108.086 181.675C107.481 181.758 106.892 181.838 106.33 181.893L95.6922 182.909C95.4783 182.93 95.4941 183.162 95.4941 183.163C95.5029 183.282 95.5695 183.289 95.6378 183.284L107.094 182.581C107.441 182.56 107.872 182.506 108.335 182.447C109.101 182.35 109.935 182.245 110.671 182.245H110.669Z" fill="#231F20"/>
<path d="M204.134 163.521C197.741 164.317 190.238 168.018 190.326 175.417C190.41 182.471 198.151 184.555 203.399 180.813C204.085 180.324 203.647 179.404 202.851 179.511C200.101 179.881 197.097 181.774 194.418 179.967C192.15 178.439 191.915 175.193 192.676 172.827C194.274 167.864 200.152 166.173 204.223 163.853C204.367 163.77 204.316 163.499 204.134 163.521Z" fill="#231F20"/>
<path d="M197.769 182.999C196.417 182.999 195.094 182.704 193.911 182.103C191.411 180.834 190.014 178.46 189.977 175.421C189.891 168.185 197.003 164.058 204.09 163.176C204.332 163.145 204.546 163.285 204.624 163.52C204.707 163.765 204.61 164.031 204.395 164.154C203.489 164.671 202.516 165.146 201.487 165.649C197.909 167.398 194.208 169.205 193.005 172.934C192.283 175.176 192.478 178.241 194.611 179.678C196.388 180.876 198.308 180.328 200.34 179.746C201.151 179.515 201.99 179.275 202.804 179.166C203.34 179.089 203.827 179.362 204.015 179.837C204.195 180.295 204.032 180.789 203.601 181.097C201.84 182.354 199.773 183.001 197.769 183.001V182.999ZM203.217 164.005C196.77 165.083 190.596 168.928 190.673 175.412C190.706 178.179 191.968 180.337 194.227 181.483C196.933 182.857 200.455 182.484 203.198 180.528C203.368 180.407 203.431 180.247 203.368 180.091C203.317 179.958 203.163 179.823 202.896 179.853C202.132 179.956 201.354 180.179 200.531 180.414C198.435 181.011 196.268 181.632 194.223 180.254C191.793 178.616 191.547 175.2 192.345 172.72C193.636 168.709 197.646 166.751 201.182 165.023C201.89 164.678 202.57 164.345 203.217 164.005Z" fill="#231F20"/>
<path d="M203.874 163.041C205.926 161.858 208.722 162.317 210.308 164.131C212.225 166.325 211.964 169.571 210.781 172.012C209.006 175.675 205.579 177.224 202.884 180.019C202.295 180.631 203.035 181.463 203.748 181.137C208.748 178.859 214.039 172.883 212.903 166.989C212.085 162.745 207.356 159.965 203.517 162.422C203.133 162.668 203.476 163.269 203.876 163.037L203.874 163.041Z" fill="#231F20"/>
<path d="M203.422 181.558C203.068 181.558 202.725 181.392 202.511 181.09C202.218 180.676 202.266 180.161 202.634 179.781C203.587 178.793 204.633 177.953 205.644 177.143C207.548 175.62 209.344 174.18 210.467 171.863C211.477 169.779 211.971 166.565 210.045 164.361C208.587 162.692 205.951 162.244 204.048 163.342C203.711 163.535 203.308 163.43 203.109 163.101C202.902 162.761 202.996 162.345 203.328 162.133C205.063 161.022 207.146 160.856 209.051 161.674C211.189 162.592 212.796 164.604 213.243 166.926C214.367 172.757 209.265 179.008 203.892 181.458C203.741 181.526 203.58 181.56 203.422 181.56V181.558ZM206.382 162.033C207.944 162.033 209.504 162.683 210.569 163.903C212.719 166.362 212.194 169.892 211.093 172.166C209.901 174.627 207.958 176.183 206.079 177.687C205.085 178.484 204.057 179.308 203.135 180.263C202.965 180.44 203.01 180.592 203.079 180.689C203.175 180.825 203.379 180.927 203.603 180.824C208.736 178.484 213.618 172.555 212.558 167.058C212.153 164.958 210.704 163.141 208.774 162.312C207.061 161.576 205.259 161.721 203.701 162.719V162.74C204.526 162.263 205.453 162.033 206.381 162.033H206.382Z" fill="#231F20"/>
<path d="M107.709 195.592C104.414 209.989 107.569 230.038 114.752 242.941C115.194 243.735 116.466 243.199 116.218 242.324C114.129 234.964 111.304 228.019 109.994 220.415C108.577 212.174 108.839 203.952 108.235 195.664C108.214 195.38 107.781 195.282 107.711 195.592H107.709Z" fill="#231F20"/>
<path d="M209.719 152.61C205.247 154.356 201.459 161.241 203.287 165.964C203.683 166.988 205.129 166.844 205.212 165.703C205.385 163.276 205.04 161.197 205.965 158.819C206.827 156.602 208.405 154.804 209.978 153.055C210.14 152.875 209.985 152.505 209.719 152.608V152.61Z" fill="#231F20"/>
<path d="M202.416 181.996C198.407 197.455 202.005 214.19 208.818 228.355C209.414 229.594 211.258 228.511 210.664 227.277C203.685 212.767 202.532 197.946 203.117 182.093C203.131 181.689 202.518 181.611 202.418 181.998L202.416 181.996Z" fill="#231F20"/>
<path d="M98.1194 149.698C87.9916 149.698 79.7531 139.509 79.7531 126.983C79.7531 114.458 87.9916 104.271 98.1194 104.271C108.247 104.271 116.486 114.46 116.486 126.983C116.486 139.507 108.247 149.698 98.1194 149.698ZM98.1194 106.358C89.143 106.358 81.8386 115.611 81.8386 126.985C81.8386 138.359 89.1413 147.612 98.1194 147.612C107.097 147.612 114.4 138.359 114.4 126.985C114.4 115.611 107.097 106.358 98.1194 106.358Z" fill="#231F20"/>
<path d="M170.249 128.026C161.571 128.026 154.51 118.71 154.51 107.259C154.51 95.808 161.571 86.4917 170.249 86.4917C178.927 86.4917 185.988 95.808 185.988 107.259C185.988 118.71 178.927 128.026 170.249 128.026ZM170.249 88.5789C162.72 88.5789 156.597 96.9594 156.597 107.259C156.597 117.558 162.722 125.939 170.249 125.939C177.776 125.939 183.901 117.558 183.901 107.259C183.901 96.9594 177.776 88.5789 170.249 88.5789Z" fill="#231F20"/>
<path d="M111.786 113.082C92.1979 107.255 82.2559 148.692 102.832 148.692C104.122 148.692 104.124 146.669 102.832 146.689C85.9502 146.925 93.4842 109.173 111.539 113.985C112.12 114.141 112.364 113.254 111.787 113.084L111.786 113.082Z" fill="#231F20"/>
<path d="M159.233 95.6817C175.352 91.4109 182.228 124.999 167.067 125.012C165.777 125.012 165.775 127.036 167.067 127.015C185.85 126.708 176.62 89.5041 158.984 94.7809C158.409 94.9527 158.649 95.8377 159.233 95.6817Z" fill="#231F20"/>
<path d="M82.8221 159.094C81.9231 160.29 81.024 161.487 80.125 162.682C79.3521 163.711 78.1972 164.806 77.873 166.062C77.7766 166.439 78.2078 166.821 78.56 166.59C79.629 165.885 80.2599 164.527 80.9715 163.479C81.8582 162.175 82.745 160.87 83.63 159.566C83.9735 159.059 83.1761 158.625 82.8221 159.094Z" fill="#231F20"/>
<path d="M78.3321 166.835C78.2077 166.835 78.085 166.797 77.9728 166.716C77.7468 166.555 77.6399 166.275 77.7047 166.02C77.9571 165.044 78.6651 164.193 79.3521 163.367C79.5746 163.099 79.7937 162.836 79.9865 162.578L82.6836 158.991C82.9342 158.658 83.3635 158.66 83.6352 158.854C83.9086 159.049 83.9647 159.384 83.7736 159.666L81.1133 163.581C80.9416 163.835 80.7733 164.108 80.6016 164.385C80.0566 165.27 79.494 166.185 78.6546 166.739C78.5547 166.806 78.4425 166.837 78.3303 166.837L78.3321 166.835ZM83.2181 159.068C83.1287 159.068 83.0358 159.102 82.9622 159.2L80.2651 162.787C80.0688 163.05 79.8463 163.316 79.6202 163.588C78.9595 164.384 78.276 165.206 78.0429 166.106C78.0079 166.241 78.085 166.367 78.1761 166.432C78.2322 166.471 78.3426 166.525 78.4653 166.445C79.2399 165.935 79.7832 165.053 80.3072 164.2C80.4807 163.917 80.6507 163.641 80.8277 163.381L83.4862 159.466C83.6036 159.294 83.5037 159.184 83.4336 159.133C83.3811 159.096 83.3022 159.065 83.2181 159.065V159.068Z" fill="#231F20"/>
<path d="M91.416 160.178C90.8728 160.982 90.3277 161.786 89.7845 162.591C89.306 163.297 88.5998 164.04 88.435 164.887C88.3439 165.356 88.8539 165.647 89.2166 165.342C89.8756 164.787 90.1788 163.807 90.5643 163.046C91.0025 162.181 91.4406 161.313 91.8787 160.448C92.0347 160.139 91.6106 159.892 91.4178 160.178H91.416Z" fill="#231F20"/>
<path d="M88.8873 165.644C88.7751 165.644 88.6647 165.614 88.5648 165.556C88.3264 165.416 88.209 165.142 88.2651 164.857C88.3983 164.18 88.8382 163.59 89.264 163.02C89.3972 162.843 89.5269 162.668 89.6426 162.496L91.2742 160.081C91.4284 159.852 91.6913 159.836 91.8683 159.943C92.0453 160.046 92.1592 160.281 92.0347 160.526L90.7204 163.125C90.6257 163.311 90.5364 163.511 90.447 163.714C90.1561 164.363 89.8564 165.032 89.3306 165.477C89.2009 165.588 89.0432 165.644 88.889 165.644H88.8873ZM91.5616 160.276L89.93 162.689C89.8108 162.866 89.6776 163.045 89.5409 163.227C89.1396 163.767 88.7225 164.324 88.6068 164.922C88.5788 165.064 88.6296 165.188 88.7418 165.255C88.8312 165.307 88.9731 165.321 89.1046 165.209C89.569 164.816 89.8529 164.182 90.128 163.569C90.2209 163.36 90.312 163.157 90.4084 162.966L91.7228 160.367C91.7596 160.293 91.7193 160.255 91.6913 160.239C91.6632 160.223 91.6071 160.206 91.5616 160.272V160.276Z" fill="#231F20"/>
<path d="M100.885 160.288C100.31 161.075 99.737 161.862 99.1622 162.648C98.6504 163.349 97.9074 164.075 97.7356 164.941C97.6129 165.561 98.2701 165.894 98.7398 165.526C99.4285 164.986 99.7422 163.986 100.135 163.218C100.576 162.354 101.018 161.49 101.46 160.626C101.659 160.237 101.134 159.946 100.883 160.29L100.885 160.288Z" fill="#231F20"/>
<path d="M98.3104 165.852C98.1684 165.852 98.0265 165.814 97.9021 165.737C97.6269 165.568 97.4972 165.249 97.5656 164.904C97.704 164.203 98.1772 163.613 98.6346 163.041C98.7696 162.873 98.9028 162.708 99.0219 162.543L100.745 160.183C100.936 159.922 101.241 159.913 101.442 160.037C101.672 160.179 101.744 160.453 101.616 160.702L100.291 163.294C100.198 163.476 100.108 163.67 100.019 163.87C99.7177 164.534 99.4057 165.223 98.8484 165.659C98.6872 165.786 98.4979 165.85 98.3104 165.85V165.852ZM101.025 160.39L99.3041 162.75C99.1814 162.919 99.0465 163.089 98.908 163.26C98.4769 163.798 98.03 164.356 97.9091 164.972C97.8688 165.176 97.9336 165.348 98.0861 165.44C98.2508 165.54 98.4646 165.519 98.6364 165.386C99.1271 165.002 99.4197 164.354 99.7054 163.728C99.7983 163.523 99.8894 163.323 99.984 163.136L101.309 160.544C101.372 160.419 101.298 160.356 101.263 160.334C101.202 160.297 101.102 160.288 101.029 160.388L101.025 160.39Z" fill="#231F20"/>
<path d="M183.43 131.683C183.148 132.44 182.867 133.198 182.585 133.955C182.261 134.826 183.791 135.257 183.978 134.338C184.14 133.548 184.299 132.758 184.46 131.967C184.599 131.287 183.668 131.04 183.43 131.683Z" fill="#231F20"/>
<path d="M183.33 135.026C183.048 135.026 182.758 134.908 182.571 134.705C182.368 134.484 182.313 134.188 182.422 133.895L183.267 131.624C183.423 131.203 183.822 131.074 184.141 131.165C184.441 131.251 184.723 131.549 184.63 132.003L184.148 134.374C184.085 134.684 183.88 134.91 183.586 134.991C183.503 135.013 183.417 135.024 183.33 135.024V135.026ZM183.94 131.486C183.803 131.486 183.661 131.561 183.593 131.745L182.748 134.016C182.683 134.19 182.711 134.342 182.827 134.468C182.983 134.638 183.267 134.719 183.491 134.656C183.663 134.608 183.768 134.489 183.806 134.304L184.288 131.932C184.339 131.678 184.188 131.54 184.045 131.498C184.011 131.489 183.975 131.484 183.94 131.484V131.486Z" fill="#231F20"/>
<path d="M188.41 129.325C188.345 129.838 188.282 130.35 188.218 130.863C188.158 131.345 188.048 131.825 188.137 132.306C188.207 132.686 188.827 132.775 188.992 132.418C189.201 131.962 189.213 131.466 189.274 130.974C189.343 130.423 189.411 129.875 189.481 129.325C189.567 128.645 188.496 128.65 188.412 129.325H188.41Z" fill="#231F20"/>
<path d="M188.605 132.819C188.575 132.819 188.544 132.818 188.512 132.814C188.23 132.779 188.011 132.588 187.965 132.339C187.89 131.927 187.948 131.522 188.004 131.132C188.018 131.035 188.032 130.939 188.044 130.842L188.237 129.304C188.295 128.834 188.717 128.599 189.106 128.648C189.472 128.694 189.695 128.981 189.649 129.346L189.443 130.995C189.43 131.093 189.42 131.191 189.409 131.289C189.367 131.689 189.325 132.101 189.146 132.49C189.052 132.695 188.845 132.819 188.601 132.819H188.605ZM189.013 128.992C188.838 128.992 188.615 129.093 188.584 129.348L188.391 130.886C188.379 130.984 188.365 131.083 188.351 131.182C188.296 131.563 188.244 131.92 188.309 132.278C188.33 132.392 188.447 132.456 188.556 132.471C188.652 132.485 188.784 132.458 188.833 132.348C188.987 132.01 189.025 131.643 189.066 131.254C189.076 131.154 189.087 131.054 189.099 130.953L189.306 129.305C189.336 129.065 189.167 129.009 189.064 128.995C189.047 128.994 189.031 128.992 189.011 128.992H189.013Z" fill="#231F20"/>
<path d="M194.966 124.127C194.761 125.213 194.556 126.3 194.353 127.386C194.169 128.361 193.834 129.386 193.936 130.376C193.99 130.907 194.768 131.272 195.056 130.679C195.492 129.782 195.55 128.741 195.711 127.761C195.892 126.668 196.072 125.576 196.255 124.482C196.393 123.646 195.128 123.277 194.966 124.127Z" fill="#231F20"/>
<path d="M194.607 131.158C194.565 131.158 194.521 131.154 194.478 131.146C194.108 131.079 193.801 130.756 193.764 130.392C193.685 129.617 193.861 128.834 194.031 128.075C194.085 127.832 194.139 127.591 194.183 127.353L194.797 124.093C194.879 123.657 195.242 123.405 195.678 123.482C196.116 123.559 196.516 123.965 196.426 124.509L195.885 127.788C195.848 128.003 195.818 128.222 195.788 128.441C195.68 129.223 195.566 130.031 195.214 130.755C195.087 131.012 194.867 131.158 194.607 131.158ZM195.138 124.16L194.525 127.42C194.479 127.662 194.425 127.907 194.369 128.154C194.206 128.885 194.036 129.642 194.11 130.36C194.132 130.593 194.35 130.772 194.537 130.806C194.649 130.825 194.802 130.806 194.9 130.606C195.228 129.931 195.336 129.151 195.443 128.396C195.475 128.173 195.505 127.952 195.541 127.735L196.083 124.456C196.141 124.113 195.887 123.876 195.618 123.829C195.52 123.811 195.208 123.787 195.138 124.162V124.16Z" fill="#231F20"/>
<path d="M93.0426 135.87C95.954 135.87 98.3141 134.405 98.3141 132.598C98.3141 130.791 95.954 129.326 93.0426 129.326C90.1312 129.326 87.7711 130.791 87.7711 132.598C87.7711 134.405 90.1312 135.87 93.0426 135.87Z" fill="white"/>
<path d="M178.003 115.883C180.614 114.595 182.083 112.237 181.283 110.617C180.484 108.996 177.719 108.726 175.108 110.014C172.497 111.301 171.028 113.659 171.828 115.28C172.627 116.9 175.391 117.17 178.003 115.883Z" fill="white"/>
</g>
<defs>
<clipPath id="clip0_25_721">
<rect width="229" height="256.274" fill="white" transform="translate(0 0.725739)"/>
</clipPath>
</defs>
</svg>
